<?xml version="1.0" encoding="utf-8"?>
<!-- Generator: Adobe Illustrator 16.0.0, SVG Export Plug-In . SVG Version: 6.00 Build 0)  -->
<!DOCTYPE svg PUBLIC "-//W3C//DTD SVG 1.1//EN" "http://www.w3.org/Graphics/SVG/1.1/DTD/svg11.dtd" [
	<!ENTITY ns_extend "http://ns.adobe.com/Extensibility/1.0/">
	<!ENTITY ns_ai "http://ns.adobe.com/AdobeIllustrator/10.0/">
	<!ENTITY ns_graphs "http://ns.adobe.com/Graphs/1.0/">
	<!ENTITY ns_vars "http://ns.adobe.com/Variables/1.0/">
	<!ENTITY ns_imrep "http://ns.adobe.com/ImageReplacement/1.0/">
	<!ENTITY ns_sfw "http://ns.adobe.com/SaveForWeb/1.0/">
	<!ENTITY ns_custom "http://ns.adobe.com/GenericCustomNamespace/1.0/">
	<!ENTITY ns_adobe_xpath "http://ns.adobe.com/XPath/1.0/">
]>
<svg version="1.1" id="Layer_1" xmlns:x="&ns_extend;" xmlns:i="&ns_ai;" xmlns:graph="&ns_graphs;"
	 xmlns="http://www.w3.org/2000/svg" xmlns:xlink="http://www.w3.org/1999/xlink" x="0px" y="0px" width="1024px"
	 height="998.752px" viewBox="0 0 1024 998.752" style="enable-background:new 0 0 1024 998.752;" xml:space="preserve">
<metadata>
	<sfw  xmlns="&ns_sfw;">
		<slices></slices>
		<sliceSourceBounds  width="1024" height="998.752" y="-386.252" x="-262.5" bottomLeftOrigin="true"></sliceSourceBounds>
	</sfw>
</metadata>
<path d="M512,0C229.25,0,0,229.25,0,512c0,226.25,146.688,418.125,350.156,485.813c25.594,4.688,34.938-11.125,34.938-24.625
	c0-12.188-0.469-52.563-0.719-95.313C242,908.813,211.906,817.5,211.906,817.5c-23.312-59.125-56.844-74.875-56.844-74.875
	c-46.531-31.75,3.53-31.125,3.53-31.125c51.406,3.563,78.47,52.75,78.47,52.75c45.688,78.25,119.875,55.625,149,42.5
	c4.654-33,17.904-55.625,32.5-68.375C304.906,725.438,185.344,681.5,185.344,485.313c0-55.938,19.969-101.563,52.656-137.406
	c-5.219-13-22.844-65.094,5.062-135.562c0,0,42.938-13.75,140.812,52.5c40.812-11.406,84.594-17.031,128.125-17.219
	c43.5,0.188,87.312,5.875,128.188,17.281c97.688-66.312,140.688-52.5,140.688-52.5c28,70.531,10.375,122.562,5.125,135.5
	c32.813,35.844,52.625,81.469,52.625,137.406c0,196.688-119.75,240-233.813,252.688c18.438,15.875,34.75,47,34.75,94.75
	c0,68.438-0.688,123.625-0.688,140.5c0,13.625,9.313,29.563,35.25,24.563C877.438,930,1024,738.125,1024,512
	C1024,229.25,794.75,0,512,0z"/>
</svg>
