<?xml version="1.0" encoding="utf-8"?>
<!-- Generator: Adobe Illustrator 16.0.0, SVG Export Plug-In . SVG Version: 6.00 Build 0)  -->
<!DOCTYPE svg PUBLIC "-//W3C//DTD SVG 1.1//EN" "http://www.w3.org/Graphics/SVG/1.1/DTD/svg11.dtd" [
	<!ENTITY ns_extend "http://ns.adobe.com/Extensibility/1.0/">
	<!ENTITY ns_ai "http://ns.adobe.com/AdobeIllustrator/10.0/">
	<!ENTITY ns_graphs "http://ns.adobe.com/Graphs/1.0/">
	<!ENTITY ns_vars "http://ns.adobe.com/Variables/1.0/">
	<!ENTITY ns_imrep "http://ns.adobe.com/ImageReplacement/1.0/">
	<!ENTITY ns_sfw "http://ns.adobe.com/SaveForWeb/1.0/">
	<!ENTITY ns_custom "http://ns.adobe.com/GenericCustomNamespace/1.0/">
	<!ENTITY ns_adobe_xpath "http://ns.adobe.com/XPath/1.0/">
]>
<svg version="1.1" id="Layer_1" xmlns:x="&ns_extend;" xmlns:i="&ns_ai;" xmlns:graph="&ns_graphs;"
	 xmlns="http://www.w3.org/2000/svg" xmlns:xlink="http://www.w3.org/1999/xlink" x="0px" y="0px" width="349px" height="65px"
	 viewBox="0 0 349 65" style="enable-background:new 0 0 349 65;" xml:space="preserve">
<metadata>
	<sfw  xmlns="&ns_sfw;">
		<slices></slices>
		<sliceSourceBounds  width="345.382" height="62.219" y="-96.08" x="76.398" bottomLeftOrigin="true"></sliceSourceBounds>
	</sfw>
</metadata>
<g>
	<path style="fill:#5A5B5B;" d="M93.681,19.89c5.76-5.73,9-9.18,9-12.27c0-2.19-1.2-3.75-3.63-3.75c-1.59,0-2.97,1.02-4.08,2.31
		l-1.41-1.41c1.59-1.74,3.3-2.91,5.79-2.91c3.54,0,5.73,2.25,5.73,5.64c0,3.6-3.27,7.169-7.8,11.91c1.05-0.09,2.22-0.18,3.21-0.18
		h5.55v2.13h-12.36V19.89z"/>
	<path style="fill:#5A5B5B;" d="M108.591,19.89c5.76-5.73,9-9.18,9-12.27c0-2.19-1.2-3.75-3.63-3.75c-1.59,0-2.97,1.02-4.08,2.31
		l-1.41-1.41c1.59-1.74,3.3-2.91,5.79-2.91c3.54,0,5.73,2.25,5.73,5.64c0,3.6-3.27,7.169-7.8,11.91c1.05-0.09,2.22-0.18,3.21-0.18
		h5.55v2.13h-12.359V19.89z"/>
	<path style="fill:#5A5B5B;" d="M134.27,5.431c-0.78-0.93-1.95-1.5-3.15-1.5c-2.67,0-4.92,2.07-5.04,8.129
		c1.2-1.47,2.91-2.4,4.47-2.4c3.3,0,5.46,1.98,5.46,5.91c0,3.66-2.58,6.149-5.67,6.149c-3.75,0-6.6-3.06-6.6-9.209
		c0-7.68,3.48-10.649,7.29-10.649c2.07,0,3.54,0.87,4.62,2.04L134.27,5.431z M133.67,15.57c0-2.49-1.17-4.05-3.54-4.05
		c-1.2,0-2.7,0.72-3.99,2.52c0.3,3.72,1.77,5.73,4.2,5.73C132.23,19.77,133.67,18.09,133.67,15.57z"/>
	<path style="fill:#5A5B5B;" d="M140.96,17.94c0.96,0,1.77,0.78,1.77,1.92c0,1.08-0.81,1.86-1.77,1.86c-0.99,0-1.8-0.78-1.8-1.86
		C139.16,18.72,139.97,17.94,140.96,17.94z"/>
	<path style="fill:#5A5B5B;" d="M155.539,4.351H146v-2.13h12.33v1.53c-4.53,5.79-5.46,10.14-5.79,17.609h-2.55
		C150.319,14.16,151.759,9.601,155.539,4.351z"/>
	<path style="fill:#5A5B5B;" d="M173.659,16.08h-2.61v5.28h-2.34v-5.28h-8.61v-1.62l8.19-12.239h2.76V14.1h2.61V16.08z
		 M168.709,14.1V8.55c0-1.02,0.09-2.67,0.15-3.69h-0.12c-0.48,0.93-1.02,1.77-1.56,2.7l-4.47,6.54H168.709z"/>
	<path style="fill:#5A5B5B;" d="M185.358,4.351h-9.54v-2.13h12.33v1.53c-4.529,5.79-5.46,10.14-5.79,17.609h-2.55
		C180.139,14.16,181.579,9.601,185.358,4.351z"/>
	<path style="fill:#5A5B5B;" d="M193.159,17.94c0.96,0,1.77,0.78,1.77,1.92c0,1.08-0.81,1.86-1.77,1.86c-0.99,0-1.8-0.78-1.8-1.86
		C191.359,18.72,192.169,17.94,193.159,17.94z"/>
	<path style="fill:#5A5B5B;" d="M198.919,17.4c1.14,1.2,2.64,2.28,4.89,2.28c2.31,0,3.96-1.38,3.96-3.51c0-2.28-1.56-3.81-6.12-3.81
		v-1.89c4.08,0,5.43-1.56,5.43-3.57c0-1.86-1.26-3.03-3.3-3.03c-1.59,0-2.939,0.81-4.079,1.95l-1.32-1.56
		c1.47-1.38,3.24-2.4,5.489-2.4c3.33,0,5.73,1.77,5.73,4.86c0,2.31-1.41,3.78-3.48,4.56v0.12c2.311,0.54,4.141,2.22,4.141,4.86
		c0,3.39-2.79,5.459-6.3,5.459c-3.061,0-5.01-1.29-6.3-2.7L198.919,17.4z"/>
	<path style="fill:#5A5B5B;" d="M212.989,19.89c5.76-5.73,8.999-9.18,8.999-12.27c0-2.19-1.199-3.75-3.63-3.75
		c-1.59,0-2.97,1.02-4.079,2.31l-1.41-1.41c1.59-1.74,3.3-2.91,5.79-2.91c3.539,0,5.729,2.25,5.729,5.64c0,3.6-3.27,7.169-7.8,11.91
		c1.05-0.09,2.22-0.18,3.21-0.18h5.55v2.13h-12.359V19.89z"/>
	<path style="fill:#5A5B5B;" d="M228.739,17.4c1.14,1.2,2.64,2.28,4.89,2.28c2.31,0,3.96-1.38,3.96-3.51c0-2.28-1.56-3.81-6.12-3.81
		v-1.89c4.08,0,5.43-1.56,5.43-3.57c0-1.86-1.26-3.03-3.3-3.03c-1.59,0-2.939,0.81-4.079,1.95l-1.32-1.56
		c1.47-1.38,3.24-2.4,5.489-2.4c3.33,0,5.73,1.77,5.73,4.86c0,2.31-1.41,3.78-3.48,4.56v0.12c2.311,0.54,4.141,2.22,4.141,4.86
		c0,3.39-2.79,5.459-6.3,5.459c-3.061,0-5.01-1.29-6.3-2.7L228.739,17.4z"/>
	<path style="fill:#5A5B5B;" d="M244.52,18.15c0.779,0.93,1.949,1.53,3.149,1.53c2.7,0,4.979-2.1,5.07-8.219
		c-1.2,1.53-2.91,2.459-4.5,2.459c-3.3,0-5.43-1.979-5.43-5.91c0-3.66,2.58-6.149,5.64-6.149c3.779,0,6.6,3.06,6.6,9.209
		c0,7.68-3.479,10.649-7.29,10.649c-2.04,0-3.569-0.87-4.619-2.01L244.52,18.15z M252.679,9.51c-0.33-3.72-1.8-5.7-4.229-5.7
		c-1.86,0-3.33,1.68-3.33,4.2c0,2.49,1.17,4.05,3.54,4.05C249.889,12.06,251.389,11.34,252.679,9.51z"/>
	<path style="fill:#5A5B5B;" d="M1.898,42.78h2.04l0.21,2.64h0.09c0.99-1.83,2.49-3,4.14-3c0.63,0,1.08,0.09,1.56,0.3l-0.48,2.16
		c-0.48-0.15-0.81-0.24-1.41-0.24c-1.23,0-2.7,0.9-3.69,3.359v9.36h-2.46V42.78z"/>
	<path style="fill:#5A5B5B;" d="M17.468,42.42c3.72,0,5.819,2.67,5.819,6.84c0,0.51-0.03,0.99-0.09,1.35h-9.839
		c0.18,3.149,2.07,5.129,4.859,5.129c1.38,0,2.55-0.45,3.63-1.14l0.87,1.62c-1.26,0.81-2.82,1.5-4.8,1.5c-3.9,0-6.99-2.85-6.99-7.62
		C10.928,45.331,14.138,42.42,17.468,42.42z M21.127,48.99c0-2.97-1.32-4.62-3.6-4.62c-2.04,0-3.899,1.68-4.2,4.62H21.127z"/>
	<path style="fill:#5A5B5B;" d="M26.887,36.001h2.43V50.46h0.09l6.209-7.68h2.73l-4.89,5.85l5.55,8.729h-2.7l-4.26-7.02l-2.73,3.18
		v3.84h-2.43V36.001z"/>
	<path style="fill:#5A5B5B;" d="M49.687,48.12c0-1.86-0.63-3.66-3-3.66c-1.709,0-3.209,0.78-4.35,1.56l-0.99-1.71
		c1.35-0.87,3.39-1.89,5.729-1.89c3.57,0,5.07,2.37,5.07,6v8.939h-2.04l-0.21-1.74h-0.06c-1.41,1.14-3.03,2.1-4.83,2.1
		c-2.46,0-4.29-1.53-4.29-4.14C40.717,50.4,43.478,48.81,49.687,48.12z M45.697,55.74c1.41,0,2.58-0.69,3.99-1.95v-4.05
		c-4.89,0.6-6.54,1.8-6.54,3.66C43.147,55.05,44.257,55.74,45.697,55.74z"/>
	<path style="fill:#5A5B5B;" d="M58.087,53.94c0.96,0,1.77,0.78,1.77,1.92c0,1.08-0.81,1.86-1.77,1.86c-0.99,0-1.8-0.78-1.8-1.86
		C56.287,54.72,57.097,53.94,58.087,53.94z"/>
	<path style="fill:#5A5B5B;" d="M63.877,54.06c1.26,1.02,2.55,1.74,4.29,1.74c1.92,0,2.88-1.02,2.88-2.28c0-1.5-1.74-2.16-3.33-2.76
		c-2.07-0.75-4.35-1.74-4.35-4.2c0-2.34,1.86-4.14,5.01-4.14c1.83,0,3.42,0.75,4.53,1.65l-1.17,1.56c-0.99-0.75-2.04-1.29-3.33-1.29
		c-1.83,0-2.67,0.99-2.67,2.1c0,1.35,1.59,1.89,3.24,2.52c2.1,0.78,4.439,1.65,4.439,4.41c0,2.37-1.89,4.35-5.34,4.35
		c-2.07,0-4.05-0.87-5.43-2.01L63.877,54.06z"/>
	<path style="fill:#5A5B5B;" d="M75.307,56.04l7.68-11.25h-6.84v-2.01h9.959v1.32l-7.68,11.25h7.92v2.01h-11.04V56.04z"/>
	<path style="fill:#5A5B5B;" d="M94.746,42.42c3.72,0,5.82,2.67,5.82,6.84c0,0.51-0.03,0.99-0.09,1.35h-9.839
		c0.18,3.149,2.07,5.129,4.859,5.129c1.38,0,2.55-0.45,3.63-1.14l0.87,1.62c-1.26,0.81-2.82,1.5-4.8,1.5c-3.9,0-6.99-2.85-6.99-7.62
		C88.207,45.331,91.417,42.42,94.746,42.42z M98.406,48.99c0-2.97-1.32-4.62-3.6-4.62c-2.04,0-3.9,1.68-4.2,4.62H98.406z"/>
	<path style="fill:#5A5B5B;" d="M106.626,58.59v4.92h-2.46V42.78h2.04l0.21,1.68h0.09c1.32-1.11,2.94-2.04,4.65-2.04
		c3.75,0,5.76,2.91,5.76,7.44c0,4.95-2.97,7.859-6.3,7.859c-1.35,0-2.7-0.63-4.05-1.68L106.626,58.59z M110.196,55.65
		c2.4,0,4.17-2.19,4.17-5.79c0-3.21-1.08-5.37-3.84-5.37c-1.23,0-2.46,0.69-3.9,1.98v7.65
		C107.946,55.23,109.236,55.65,110.196,55.65z"/>
	<path style="fill:#5A5B5B;" d="M126.275,42.42c3.72,0,5.82,2.67,5.82,6.84c0,0.51-0.03,0.99-0.09,1.35h-9.839
		c0.18,3.149,2.07,5.129,4.859,5.129c1.38,0,2.55-0.45,3.63-1.14l0.87,1.62c-1.26,0.81-2.82,1.5-4.8,1.5c-3.9,0-6.99-2.85-6.99-7.62
		C119.736,45.331,122.946,42.42,126.275,42.42z M129.936,48.99c0-2.97-1.32-4.62-3.6-4.62c-2.04,0-3.9,1.68-4.2,4.62H129.936z"/>
	<path style="fill:#5A5B5B;" d="M135.305,54.06c1.26,1.02,2.55,1.74,4.29,1.74c1.92,0,2.88-1.02,2.88-2.28
		c0-1.5-1.74-2.16-3.33-2.76c-2.07-0.75-4.35-1.74-4.35-4.2c0-2.34,1.86-4.14,5.01-4.14c1.83,0,3.42,0.75,4.53,1.65l-1.17,1.56
		c-0.99-0.75-2.04-1.29-3.33-1.29c-1.83,0-2.67,0.99-2.67,2.1c0,1.35,1.59,1.89,3.24,2.52c2.1,0.78,4.439,1.65,4.439,4.41
		c0,2.37-1.89,4.35-5.34,4.35c-2.07,0-4.05-0.87-5.43-2.01L135.305,54.06z"/>
	<path style="fill:#5A5B5B;" d="M146.165,42.78h2.55l2.76,8.28c0.42,1.44,0.9,2.91,1.35,4.29h0.12c0.42-1.38,0.9-2.85,1.32-4.29
		l2.76-8.28h2.43l-5.16,14.58h-2.88L146.165,42.78z"/>
	<path style="fill:#5A5B5B;" d="M169.925,48.12c0-1.86-0.63-3.66-3-3.66c-1.71,0-3.209,0.78-4.35,1.56l-0.99-1.71
		c1.35-0.87,3.39-1.89,5.729-1.89c3.57,0,5.07,2.37,5.07,6v8.939h-2.04l-0.21-1.74h-0.06c-1.41,1.14-3.03,2.1-4.83,2.1
		c-2.46,0-4.29-1.53-4.29-4.14C160.955,50.4,163.715,48.81,169.925,48.12z M165.935,55.74c1.41,0,2.58-0.69,3.99-1.95v-4.05
		c-4.89,0.6-6.54,1.8-6.54,3.66C163.385,55.05,164.495,55.74,165.935,55.74z"/>
	<path style="fill:#5A5B5B;" d="M177.035,42.78h2.04l0.21,2.64h0.09c0.99-1.83,2.49-3,4.14-3c0.63,0,1.08,0.09,1.561,0.3l-0.48,2.16
		c-0.479-0.15-0.81-0.24-1.41-0.24c-1.229,0-2.699,0.9-3.689,3.359v9.36h-2.46V42.78z"/>
	<path style="fill:#5A5B5B;" d="M186.994,38.19c0-0.96,0.75-1.59,1.71-1.59s1.71,0.63,1.71,1.59c0,0.93-0.75,1.59-1.71,1.59
		S186.994,39.121,186.994,38.19z M187.444,42.78h2.46v14.58h-2.46V42.78z"/>
	<path style="fill:#5A5B5B;" d="M206.403,37.98c6.061,0,9.84,4.02,9.84,9.93c0,5.25-3.27,7.98-6,7.98c-1.619,0-2.88-0.78-3.09-2.28
		h-0.06c-0.99,1.17-2.34,2.04-3.66,2.04c-2.04,0-3.6-1.5-3.6-4.23c0-3.209,2.25-6.959,5.76-6.959c1.02,0,1.86,0.45,2.399,1.44h0.061
		l0.33-1.2h1.649l-1.17,6c-0.6,2.37-0.029,3.51,1.62,3.51c1.89,0,4.02-2.31,4.02-6.21c0-4.83-2.85-8.37-8.31-8.37
		c-5.34,0-10.499,4.53-10.499,11.55c0,5.85,3.84,9.18,8.939,9.18c1.83,0,3.51-0.57,4.859-1.35l0.66,1.47
		c-1.739,1.05-3.63,1.53-5.699,1.53c-5.88,0-10.56-3.75-10.56-10.74C193.895,43.23,199.684,37.98,206.403,37.98z M203.914,53.97
		c0.84,0,1.739-0.54,2.76-1.77l0.87-4.77c-0.57-0.93-1.11-1.26-1.92-1.26c-2.37,0-3.811,2.85-3.811,5.1
		C201.813,53.19,202.714,53.97,203.914,53.97z"/>
	<path style="fill:#5A5B5B;" d="M221.253,56.85v-0.12c-0.72-0.45-1.29-1.23-1.29-2.37c0-1.23,0.841-2.19,1.591-2.7v-0.12
		c-0.96-0.78-1.891-2.19-1.891-3.93c0-3.18,2.521-5.19,5.49-5.19c0.81,0,1.529,0.15,2.069,0.36h5.07v1.89h-3
		c0.69,0.66,1.2,1.77,1.2,3c0,3.12-2.37,5.07-5.34,5.07c-0.72,0-1.53-0.18-2.19-0.51c-0.51,0.45-0.93,0.93-0.93,1.74
		c0,0.93,0.6,1.59,2.58,1.59h2.819c3.391,0,5.101,1.05,5.101,3.48c0,2.7-2.851,5.04-7.38,5.04c-3.57,0-6.03-1.41-6.03-3.93
		C219.123,58.92,219.934,57.75,221.253,56.85z M225.513,62.37c2.79,0,4.62-1.44,4.62-2.97c0-1.35-1.05-1.8-2.939-1.8h-2.521
		c-0.569,0-1.26-0.06-1.89-0.24c-1.05,0.75-1.5,1.62-1.5,2.46C221.283,61.38,222.873,62.37,225.513,62.37z M228.243,47.61
		c0-2.13-1.38-3.39-3.09-3.39s-3.09,1.26-3.09,3.39s1.41,3.48,3.09,3.48S228.243,49.74,228.243,47.61z"/>
	<path style="fill:#5A5B5B;" d="M235.354,42.78h2.04l0.21,2.1h0.09c1.26-1.38,2.79-2.46,4.53-2.46c2.22,0,3.419,1.05,4.02,2.79
		c1.53-1.65,3.029-2.79,4.8-2.79c3,0,4.439,1.98,4.439,5.7v9.24h-2.46v-8.91c0-2.73-0.87-3.9-2.699-3.9
		c-1.141,0-2.311,0.75-3.66,2.25v10.56h-2.46v-8.91c0-2.73-0.87-3.9-2.729-3.9c-1.08,0-2.311,0.75-3.66,2.25v10.56h-2.46V42.78z"/>
	<path style="fill:#5A5B5B;" d="M268.474,48.12c0-1.86-0.63-3.66-3-3.66c-1.71,0-3.21,0.78-4.351,1.56l-0.989-1.71
		c1.35-0.87,3.39-1.89,5.729-1.89c3.57,0,5.07,2.37,5.07,6v8.939h-2.04l-0.21-1.74h-0.061c-1.41,1.14-3.029,2.1-4.83,2.1
		c-2.459,0-4.289-1.53-4.289-4.14C259.504,50.4,262.264,48.81,268.474,48.12z M264.483,55.74c1.41,0,2.58-0.69,3.99-1.95v-4.05
		c-4.891,0.6-6.54,1.8-6.54,3.66C261.934,55.05,263.043,55.74,264.483,55.74z"/>
	<path style="fill:#5A5B5B;" d="M275.133,38.19c0-0.96,0.75-1.59,1.71-1.59s1.71,0.63,1.71,1.59c0,0.93-0.75,1.59-1.71,1.59
		S275.133,39.121,275.133,38.19z M275.583,42.78h2.46v14.58h-2.46V42.78z"/>
	<path style="fill:#5A5B5B;" d="M282.963,36.001h2.46V54.6c0,0.78,0.33,1.08,0.689,1.08c0.15,0,0.271,0,0.54-0.06l0.33,1.86
		c-0.33,0.15-0.75,0.24-1.41,0.24c-1.859,0-2.609-1.17-2.609-3.3V36.001z"/>
	<path style="fill:#5A5B5B;" d="M291.902,53.94c0.96,0,1.77,0.78,1.77,1.92c0,1.08-0.81,1.86-1.77,1.86c-0.99,0-1.8-0.78-1.8-1.86
		C290.103,54.72,290.912,53.94,291.902,53.94z"/>
	<path style="fill:#5A5B5B;" d="M303.781,42.42c1.92,0,3.271,0.81,4.26,1.74l-1.229,1.59c-0.87-0.75-1.771-1.29-2.94-1.29
		c-2.64,0-4.56,2.28-4.56,5.64c0,3.33,1.83,5.58,4.5,5.58c1.38,0,2.55-0.69,3.42-1.47l1.11,1.62c-1.32,1.17-3,1.89-4.74,1.89
		c-3.87,0-6.84-2.79-6.84-7.62C296.762,45.21,300.031,42.42,303.781,42.42z"/>
	<path style="fill:#5A5B5B;" d="M316.562,42.42c3.569,0,6.749,2.79,6.749,7.68c0,4.83-3.18,7.62-6.749,7.62
		c-3.57,0-6.75-2.79-6.75-7.62C309.812,45.21,312.991,42.42,316.562,42.42z M316.562,55.68c2.52,0,4.199-2.25,4.199-5.58
		c0-3.36-1.68-5.64-4.199-5.64c-2.49,0-4.2,2.28-4.2,5.64C312.361,53.43,314.071,55.68,316.562,55.68z"/>
	<path style="fill:#5A5B5B;" d="M327.151,42.78h2.04l0.21,2.1h0.09c1.26-1.38,2.79-2.46,4.53-2.46c2.22,0,3.419,1.05,4.02,2.79
		c1.529-1.65,3.029-2.79,4.8-2.79c3,0,4.439,1.98,4.439,5.7v9.24h-2.46v-8.91c0-2.73-0.87-3.9-2.699-3.9
		c-1.141,0-2.311,0.75-3.66,2.25v10.56h-2.46v-8.91c0-2.73-0.87-3.9-2.729-3.9c-1.08,0-2.311,0.75-3.66,2.25v10.56h-2.46V42.78z"/>
</g>
</svg>
