<?xml version="1.0" encoding="utf-8"?>
<!-- Generator: Adobe Illustrator 16.0.0, SVG Export Plug-In . SVG Version: 6.00 Build 0)  -->
<!DOCTYPE svg PUBLIC "-//W3C//DTD SVG 1.1//EN" "http://www.w3.org/Graphics/SVG/1.1/DTD/svg11.dtd" [
	<!ENTITY ns_extend "http://ns.adobe.com/Extensibility/1.0/">
	<!ENTITY ns_ai "http://ns.adobe.com/AdobeIllustrator/10.0/">
	<!ENTITY ns_graphs "http://ns.adobe.com/Graphs/1.0/">
	<!ENTITY ns_vars "http://ns.adobe.com/Variables/1.0/">
	<!ENTITY ns_imrep "http://ns.adobe.com/ImageReplacement/1.0/">
	<!ENTITY ns_sfw "http://ns.adobe.com/SaveForWeb/1.0/">
	<!ENTITY ns_custom "http://ns.adobe.com/GenericCustomNamespace/1.0/">
	<!ENTITY ns_adobe_xpath "http://ns.adobe.com/XPath/1.0/">
]>
<svg version="1.1" id="Layer_1" xmlns:x="&ns_extend;" xmlns:i="&ns_ai;" xmlns:graph="&ns_graphs;"
	 xmlns="http://www.w3.org/2000/svg" xmlns:xlink="http://www.w3.org/1999/xlink" x="0px" y="0px" width="24px" height="24px"
	 viewBox="0 0 24 24" style="enable-background:new 0 0 24 24;" xml:space="preserve">
<metadata>
	<sfw  xmlns="&ns_sfw;">
		<slices></slices>
		<sliceSourceBounds  width="23.994" height="20.992" y="90.004" x="237.503" bottomLeftOrigin="true"></sliceSourceBounds>
	</sfw>
</metadata>
<g>
	<g>
		<path style="fill:#E2E0F5;" d="M23.247,17.504H0.753c-0.413,0-0.75,0.361-0.75,0.803v3.42c0,0.424,0.337,0.77,0.75,0.77h22.494
			c0.414,0,0.75-0.346,0.75-0.77v-3.42C23.997,17.865,23.661,17.504,23.247,17.504z M23.247,9.504H0.753
			c-0.413,0-0.75,0.36-0.75,0.802v3.421c0,0.424,0.337,0.77,0.75,0.77h22.494c0.414,0,0.75-0.346,0.75-0.77v-3.421
			C23.997,9.864,23.661,9.504,23.247,9.504z M23.247,1.504H0.753c-0.413,0-0.75,0.36-0.75,0.802v3.42
			c0,0.423,0.337,0.769,0.75,0.769h22.494c0.414,0,0.75-0.346,0.75-0.769v-3.42C23.997,1.864,23.661,1.504,23.247,1.504z"/>
	</g>
</g>
</svg>
