<?xml version="1.0" encoding="utf-8"?>
<!-- Generator: Adobe Illustrator 16.0.0, SVG Export Plug-In . SVG Version: 6.00 Build 0)  -->
<!DOCTYPE svg PUBLIC "-//W3C//DTD SVG 1.1//EN" "http://www.w3.org/Graphics/SVG/1.1/DTD/svg11.dtd" [
	<!ENTITY ns_extend "http://ns.adobe.com/Extensibility/1.0/">
	<!ENTITY ns_ai "http://ns.adobe.com/AdobeIllustrator/10.0/">
	<!ENTITY ns_graphs "http://ns.adobe.com/Graphs/1.0/">
	<!ENTITY ns_vars "http://ns.adobe.com/Variables/1.0/">
	<!ENTITY ns_imrep "http://ns.adobe.com/ImageReplacement/1.0/">
	<!ENTITY ns_sfw "http://ns.adobe.com/SaveForWeb/1.0/">
	<!ENTITY ns_custom "http://ns.adobe.com/GenericCustomNamespace/1.0/">
	<!ENTITY ns_adobe_xpath "http://ns.adobe.com/XPath/1.0/">
]>
<svg version="1.1" xmlns:x="&ns_extend;" xmlns:i="&ns_ai;" xmlns:graph="&ns_graphs;"
	 xmlns="http://www.w3.org/2000/svg" xmlns:xlink="http://www.w3.org/1999/xlink" x="0px" y="0px" width="412.263px"
	 height="277.138px" viewBox="0 0 412.263 277.138" style="enable-background:new 0 0 412.263 277.138;" xml:space="preserve">
<metadata>
	<sfw  xmlns="&ns_sfw;">
		<slices></slices>
		<sliceSourceBounds  width="627.929" height="459.181" y="-482.598" x="119.979" bottomLeftOrigin="true"></sliceSourceBounds>
	</sfw>
</metadata>
<g id="Layer_5">
	<rect x="-29.255" y="-27.202" style="fill:#273B86;" width="109.36" height="304.34"/>
	<rect x="80.105" y="-33.42" style="fill:#621B57;" width="121.895" height="318.708"/>
	<rect x="202" y="-33.42" style="fill:#D2202C;" width="234" height="206.63"/>
	<rect x="202" y="173.21" style="fill:#EA7C24;" width="243" height="129.588"/>
</g>
<g id="triangles">
	<polyline style="fill:#48A3AE;" points="43.018,227.415 86.219,226.057 68.831,307.024 43.018,227.415 	"/>
	<polygon style="fill:#208BCB;" points="-9.965,264.096 43.018,227.415 68.831,307.024 	"/>
	<polyline style="fill:#319DC4;" points="-31.156,204.864 -7.79,266.269 43.562,227.146 -31.156,204.864 	"/>
	<polygon style="fill:#22409A;" points="-161.576,-33.42 -124.896,34.234 -95.551,-33.42 	"/>
	<polygon style="fill:#2E2E79;" points="-29.527,21.193 -49.09,63.85 63.396,44.016 	"/>
	<polygon style="fill:#273B86;" points="-128.428,30.974 -111.854,134.289 -47.46,63.578 -48.002,63.578 	"/>
	<polygon style="fill:#32499E;" points="-164.021,20.377 -124.896,34.234 -161.576,64.393 	"/>
	<polygon style="fill:#2B317C;" points="-95.551,-33.42 -124.896,34.234 -29.527,21.193 -62.131,-32.604 	"/>
	<polygon style="fill:#2B317C;" points="-161.576,-33.42 -164.021,20.377 -124.896,34.234 	"/>
	<polygon style="fill:#2D2B70;" points="-29.527,21.193 -29.527,-31.79 19.379,-34.235 	"/>
	<polygon style="fill:#33499F;" points="-125.166,34.506 -29.798,21.465 -48.545,63.308 	"/>
	<polygon style="fill:#2E2A6F;" points="38.127,-33.42 19.379,-34.235 -29.527,21.193 63.396,44.016 	"/>
	<polygon style="fill:#2E2A6F;" points="-49.362,63.85 20.194,119.006 63.396,44.016 	"/>
	<polygon style="fill:#3E5CAA;" points="-111.854,133.678 -124.896,34.234 -161.576,64.393 -161.576,100.258 	"/>
	<polygon style="fill:#2F5BAA;" points="-48.275,63.036 20.467,119.006 -112.125,134.221 	"/>
	<polygon style="fill:#2E2A70;" points="-95.551,-33.42 -29.255,-31.79 -29.527,21.193 	"/>
	<polygon style="fill:#3E6FB7;" points="-161.576,122.267 -111.854,133.678 -155.054,160.576 -162.39,155.686 	"/>
	<polygon style="fill:#3E6FB7;" points="20.194,119.006 -31.973,204.592 -111.854,133.678 	"/>
	<polygon style="fill:#437DC0;" points="-86.584,229.045 -111.854,133.678 -31.973,204.592 	"/>
	<polygon style="fill:#427EC1;" points="20.194,119.006 -31.973,204.592 43.018,227.415 	"/>
	<polygon style="fill:#2C2159;" points="38.127,-33.42 63.396,44.016 122.083,-34.235 	"/>
	<polygon style="fill:#481E57;" points="111.487,88.846 63.396,44.016 20.194,119.006 	"/>
	<polygon style="fill:#4D2464;" points="122.355,-34.776 132.952,48.5 62.988,44.559 	"/>
	<polygon style="fill:#621B57;" points="63.396,44.016 111.487,88.846 132.68,48.091 	"/>
	<polygon style="fill:#691951;" points="20.194,119.006 88.664,151.609 111.487,88.846 	"/>
	<polygon style="fill:#7A2062;" points="122.083,-34.235 155.502,-8.967 132.68,48.091 	"/>
	<polygon style="fill:#72285F;" points="122.083,-34.235 193.813,-34.235 155.502,-8.967 	"/>
	<polygon style="fill:#AD1E54;" points="193.813,-34.235 215.82,-34.235 227.231,10.596 155.502,-8.967 	"/>
	<polygon style="fill:#BC3C4D;" points="215.82,-34.235 274.509,-35.865 227.231,10.596 	"/>
	<polygon style="fill:#CE2929;" points="274.509,-35.865 306.298,-35.865 316.895,-9.782 227.231,10.596 	"/>
	<polygon style="fill:#CA583E;" points="306.298,-35.865 334.012,-35.05 316.895,-9.782 	"/>
	<polygon style="fill:#E33326;" points="334.012,-35.05 369.062,-33.42 412.263,34.234 316.895,-9.782 	"/>
	<polygon style="fill:#DF4326;" points="363.355,-34.235 411.447,-34.235 412.263,34.234 	"/>
	<polygon style="fill:#D32027;" points="316.895,-9.782 312.818,52.982 379.658,84.771 416.067,33.148 	"/>
	<polygon style="fill:#DA1F27;" points="227.231,10.596 316.895,-9.782 314.993,54.884 	"/>
	<polygon style="fill:#E61E25;" points="227.231,10.596 255.761,112.485 312.818,52.982 	"/>
	<polygon style="fill:#D2202C;" points="227.231,10.596 193.27,69.013 255.761,112.485 	"/>
	<polygon style="fill:#B01E4A;" points="155.502,-8.967 193.27,69.013 227.231,10.596 	"/>
	<polygon style="fill:#9F1D52;" points="155.502,-8.967 131.865,49.993 193.27,69.013 	"/>
	<polygon style="fill:#891848;" points="132.68,48.091 111.487,88.846 193.27,69.013 	"/>
	<polygon style="fill:#AE1E3A;" points="111.487,88.846 160.665,139.656 193.27,69.013 	"/>
	<polygon style="fill:#BE2032;" points="193.27,69.013 160.665,139.656 227.505,153.785 	"/>
	<polygon style="fill:#D51F29;" points="193.27,69.013 255.761,112.485 227.505,153.785 	"/>
	<polygon style="fill:#A11C47;" points="111.487,88.846 88.664,151.609 160.665,139.656 	"/>
	<polygon style="fill:#B12C4A;" points="88.664,151.609 160.665,139.656 139.473,186.932 	"/>
	<polygon style="fill:#C94F47;" points="160.665,139.656 139.473,186.932 227.505,153.785 	"/>
	<polygon style="fill:#B84F52;" points="88.664,151.609 130.778,202.146 139.473,186.932 	"/>
	<polygon style="fill:#806B69;" points="88.664,151.609 86.219,226.057 130.778,202.146 	"/>
	<polygon style="fill:#857D80;" points="88.664,151.609 43.018,227.415 86.219,226.057 	"/>
	<polygon style="fill:#3A517D;" points="20.194,119.006 43.018,227.415 88.664,151.609 	"/>
	<polygon style="fill:#CB753B;" points="139.473,186.932 227.505,153.785 224.244,257.031 	"/>
	<polygon style="fill:#C69451;" points="139.473,186.932 130.778,202.146 224.244,257.031 	"/>
	<polygon style="fill:#D99228;" points="227.505,153.785 224.244,257.031 274.238,230.948 	"/>
	<polygon style="fill:#DA1F27;" points="255.761,112.485 227.505,153.785 282.389,147.263 	"/>
	<polygon style="fill:#E04F26;" points="227.505,153.785 282.389,147.263 274.238,230.948 	"/>
	<polygon style="fill:#E41E26;" points="255.761,112.485 299.777,109.224 282.389,147.263 	"/>
	<path style="fill:#E31E26;" d="M255.761,112.485"/>
	<polygon style="fill:#DF4326;" points="314.993,49.993 299.777,109.224 255.761,112.485 	"/>
	<polygon style="fill:#ED1C26;" points="314.993,49.993 298.691,111.399 375.853,82.598 	"/>
	<polygon style="fill:#E45B25;" points="295.972,109.224 375.853,82.598 376.942,152.697 	"/>
	<polygon style="fill:#ED1F24;" points="412.263,35.864 375.856,82.598 391.069,126.614 	"/>
	<polygon style="fill:#EA2C24;" points="411.719,98.9 391.069,126.614 411.719,160.849 	"/>
	<polygon style="fill:#E71E25;" points="411.719,35.322 389.984,128.787 411.719,98.9 	"/>
	<polygon style="fill:#E53D26;" points="375.853,82.598 375.853,152.154 391.069,126.614 	"/>
	<polygon style="fill:#DA4126;" points="299.777,109.224 311.188,186.39 376.942,152.697 	"/>
	<polygon style="fill:#CE2929;" points="299.777,106.508 282.389,147.263 311.188,186.39 	"/>
	<polygon style="fill:#E99823;" points="376.942,152.697 381.832,277.138 411.177,235.839 411.721,178.781 	"/>
	<polygon style="fill:#EA7C24;" points="376.942,152.697 311.188,186.39 381.832,277.138 	"/>
	<polygon style="fill:#E3A525;" points="311.188,186.39 329.665,282.027 381.832,277.138 	"/>
	<polygon style="fill:#E59425;" points="311.188,186.39 274.238,230.948 329.665,282.027 	"/>
	<polygon style="fill:#E45B25;" points="282.389,147.263 311.188,186.39 274.238,230.948 	"/>
	<polyline style="fill:#C59E2D;" points="272.607,232.034 268.803,285.288 329.665,281.484 273.152,229.86 	"/>
	<polygon style="fill:#D99228;" points="274.916,231.083 227.505,153.785 224.244,257.031 	"/>
	<polygon style="fill:#D6AB29;" points="224.244,257.031 274.916,231.083 268.803,285.288 	"/>
	<polyline style="fill:#CB753B;" points="139.2,185.437 227.505,152.968 224.244,257.031 139.473,186.932 	"/>
	<polygon style="fill:#9E9B48;" points="130.778,202.146 161.209,282.436 224.244,257.031 	"/>
	<polygon style="fill:#AE9E6A;" points="86.219,226.057 130.778,202.146 161.209,282.436 	"/>
	<polygon style="fill:#C69451;" points="130.778,202.146 139.2,185.437 224.244,257.031 	"/>
	<polygon style="fill:#EA2C24;" points="391.069,126.614 411.719,160.849 411.721,178.781 375.174,152.833 	"/>
	<polygon style="fill:#789A78;" points="86.219,226.057 68.831,307.024 161.209,282.436 	"/>
	<polygon style="fill:#1199D6;" points="-86.584,229.045 -31.43,204.32 -5.617,268.985 	"/>
	<polygon style="fill:#2299D6;" points="-86.584,229.045 -76.259,319.522 -7.79,266.269 	"/>
	<polygon style="fill:#2E8FB8;" points="-7.247,265.182 -40.938,376.037 69.918,307.024 	"/>
	<polygon style="fill:#208BCB;" points="-6.975,265.725 -76.259,319.522 -40.396,377.396 	"/>
	<polygon style="fill:#3E5BA9;" points="-161.982,98.628 -111.854,133.678 -163.205,121.858 	"/>
	<polygon style="fill:#427DC0;" points="-161.982,153.647 -86.584,229.045 -162.798,244.125 	"/>
	<polygon style="fill:#3E89C9;" points="-162.798,244.125 -86.584,229.045 -76.259,319.522 	"/>
	<polygon style="fill:#416EB6;" points="-161.982,153.647 -111.854,133.678 -86.584,229.045 	"/>
	<polygon style="fill:#427CBF;" points="-162.798,244.125 -76.259,319.522 -163.205,317.078 	"/>
	<polygon style="fill:#4275BB;" points="-163.205,317.078 -162.39,359.463 -155.461,376.988 -76.259,319.522 	"/>
	<polygon style="fill:#3A6FB7;" points="-155.461,376.988 -76.259,319.522 -40.396,377.396 	"/>
	<polygon style="fill:#C62127;" points="315.535,49.993 342.163,101.073 362.54,74.99 	"/>
	<polygon style="fill:#B51F2B;" points="316.895,-9.782 375.856,82.733 383.461,-11.819 	"/>
</g>
<g id="Layer_4">
	<g>
		<path style="fill:#231F20;" d="M-87.944-10.338v289.117h551.852V-10.338H-87.944z M118.495,268.689L73.696,181.49l0.636,87.495
			l-27.036-0.296H7.017L6.512,8.694h70.384c56,0,103.999,19.2,103.999,83.999c0,37.199-16.8,61.598-41.999,75.198l56.398,100.799
			H118.495z M307.295,273.49c-32.8,0-70.398-12-98.398-37.199l39.199-47.199c18.399,14.799,41.6,25.199,60.799,25.199
			c20.8,0,29.6-6.801,29.6-18.4c0-12.4-13.199-16.4-35.199-25.199l-32.399-13.6c-28-11.2-52.399-34.8-52.399-72.399
			c0-44.399,40-80.799,96.799-80.799c29.6,0,62.399,11.2,86.398,34.799l-34.399,43.199c-17.6-12.399-32.8-18.799-51.999-18.799
			c-16.8,0-27.199,6-27.199,17.6c0,12.4,14.8,16.8,38.399,26l31.599,12.4c32.4,12.8,50.8,35.199,50.8,71.199
			C408.894,234.291,372.094,273.49,307.295,273.49z"/>
	</g>
</g>
<g id="Layer_3" style="display:none;">
	<path style="display:inline;fill:#231F20;" d="M-148.424-81.785v372.258h556.661V-81.785H-148.424z M390.114,45.678h11.761v44.441
		h-11.761V45.678z M347.04,45.678h16.818c9.571,0,17.779,3.281,17.779,14.357c0,6.358-2.872,10.531-7.183,12.857l9.647,17.227
		h-13.131l-7.653-14.906h-4.516v14.906H347.04V45.678z M276.202,45.678l4.655,19.418c1.229,4.718,2.051,9.299,3.279,14.084h0.274
		c1.229-4.786,2.12-9.366,3.279-14.084l4.516-19.418h12.028L291.11,90.119H276.89l-13.131-44.441H276.202z M244.203,73.369
		l-5.537-2.326c-4.787-1.914-8.956-5.948-8.956-12.375c0-7.589,6.836-13.813,16.55-13.813c5.057,0,10.66,1.914,14.768,5.95
		l-5.884,7.383c-3.006-2.12-5.604-3.214-8.884-3.214c-2.872,0-4.658,1.027-4.658,3.008c0,2.122,2.538,2.874,6.568,4.445l5.407,2.121
		c5.533,2.189,8.679,6.018,8.679,12.169c0,7.521-6.291,14.224-17.365,14.224c-5.606,0-12.034-2.052-16.821-6.358l6.699-8.069
		c3.146,2.528,7.107,4.307,10.396,4.307c3.553,0,5.056-1.162,5.056-3.145C250.221,75.556,247.967,74.872,244.203,73.369z
		 M72.723,83.009l18.188-27.485h-16.41v-9.846h30.905v7.11L87.22,80.272h18.324v9.846h-32.82V83.009z M-97.663,45.678h28.717v9.846
		h-16.957v6.973h14.494v9.845h-14.494v7.93h17.638v9.846h-29.398V45.678z M-140.738,45.678h16.82
		c9.573,0,17.777,3.281,17.777,14.357c0,6.358-2.873,10.531-7.18,12.857l9.64,17.227h-13.127l-7.658-14.906h-4.513v14.906h-11.759
		V45.678z M-107.116,213.55h-33.763V104.908h32.093c33.091,0,55.824,15.377,55.824,53.821
		C-52.962,197.172-75.695,213.55-107.116,213.55z M-43.646,73.025l-4.24,6.016v11.078h-11.76V45.678h11.76v16.545h0.274
		L-36.4,45.678h12.854l-13.265,18.049l14.503,24.128L-9.46,45.678H4.762l13.536,44.441H5.857l-2.189-9.436H-8.777l-2.189,9.436
		h-9.98l-1.361-2.264l-0.691,2.264h-10.805L-43.646,73.025z M38.294,213.55h-71.87V104.908h70.199v24.07H-4.829v17.048h35.434
		v24.067H-4.829v19.387h43.123V213.55z M34.163,84.582l6.698-8.069c3.145,2.528,7.11,4.307,10.395,4.307
		c3.555,0,5.058-1.162,5.058-3.145c0-2.119-2.258-2.803-6.016-4.306l-5.541-2.326c-4.784-1.914-8.955-5.948-8.955-12.375
		c0-7.589,6.836-13.813,16.546-13.813c5.059,0,10.665,1.914,14.769,5.95l-5.881,7.383c-3.008-2.12-5.607-3.214-8.888-3.214
		c-2.87,0-4.65,1.027-4.65,3.008c0,2.122,2.533,2.874,6.565,4.445l5.401,2.121c5.537,2.189,8.685,6.018,8.685,12.169
		c0,7.521-6.292,14.224-17.367,14.224C45.375,90.94,38.947,88.888,34.163,84.582z M93.782,215.557
		c-13.706,0-29.419-5.014-41.118-15.545l16.38-19.724c7.688,6.186,17.382,10.531,25.406,10.531c8.692,0,12.366-2.842,12.366-7.688
		c0-5.183-5.512-6.854-14.705-10.529l-13.539-5.684c-11.699-4.679-21.895-14.543-21.895-30.253
		c0-18.552,16.712-33.762,40.447-33.762c12.366,0,26.072,4.679,36.1,14.543l-14.372,18.052c-7.354-5.185-13.708-7.856-21.728-7.856
		c-7.021,0-11.368,2.507-11.368,7.354c0,5.181,6.185,7.021,16.046,10.861l13.206,5.183c13.539,5.349,21.227,14.71,21.227,29.751
		C136.236,199.177,120.858,215.557,93.782,215.557z M141.918,90.119h-29.401V45.678h28.717v9.846h-16.956v6.973h14.493v9.845
		h-14.493v7.93h17.641V90.119z M182.363,213.55h-28.749V104.908h28.749V213.55z M167.763,76.034h-5.47v14.085h-11.761V45.678h17.23
		c9.572,0,17.778,3.555,17.778,14.767C185.541,71.317,177.062,76.034,167.763,76.034z M192.787,45.678h28.717v9.846h-16.955v6.973
		h14.494v9.845h-14.494v7.93h17.64v9.846h-29.401V45.678z M293.346,202.187c-8.024,6.685-22.066,13.37-37.438,13.37
		c-29.754,0-54.157-18.385-54.157-55.488c0-36.439,25.071-57.164,54.826-57.164c15.373,0,27.07,6.686,34.763,14.374l-15.716,17.718
		c-5.343-4.682-10.023-7.354-18.716-7.354c-14.71,0-25.739,11.699-25.739,31.42c0,20.394,9.02,31.757,28.414,31.757
		c3.006,0,6.349-0.669,8.354-2.004v-15.045H251.89v-23.397h41.456V202.187z M301.503,90.119l13.538-44.441h14.22L342.8,90.119
		h-12.443l-2.184-9.436h-12.45l-2.184,9.436H301.503z M402.646,213.55h-29.414l-24.065-48.635l-10.36-24.237h-0.669
		c1.331,12.37,3.675,28.08,3.675,41.449v31.423h-27.414V104.908h29.42l24.064,48.472l10.368,24.404h0.661
		c-1.331-11.701-3.674-28.08-3.674-41.453v-31.423h27.408V213.55z"/>
</g>
</svg>
