<?xml version="1.0" encoding="utf-8"?>
<!-- Generator: Adobe Illustrator 16.0.0, SVG Export Plug-In . SVG Version: 6.00 Build 0)  -->
<!DOCTYPE svg PUBLIC "-//W3C//DTD SVG 1.1//EN" "http://www.w3.org/Graphics/SVG/1.1/DTD/svg11.dtd" [
	<!ENTITY ns_extend "http://ns.adobe.com/Extensibility/1.0/">
	<!ENTITY ns_ai "http://ns.adobe.com/AdobeIllustrator/10.0/">
	<!ENTITY ns_graphs "http://ns.adobe.com/Graphs/1.0/">
	<!ENTITY ns_vars "http://ns.adobe.com/Variables/1.0/">
	<!ENTITY ns_imrep "http://ns.adobe.com/ImageReplacement/1.0/">
	<!ENTITY ns_sfw "http://ns.adobe.com/SaveForWeb/1.0/">
	<!ENTITY ns_custom "http://ns.adobe.com/GenericCustomNamespace/1.0/">
	<!ENTITY ns_adobe_xpath "http://ns.adobe.com/XPath/1.0/">
]>
<svg version="1.1" id="Í_xBC__xB2_ã_x5F_1" xmlns:x="&ns_extend;" xmlns:i="&ns_ai;" xmlns:graph="&ns_graphs;"
	 xmlns="http://www.w3.org/2000/svg" xmlns:xlink="http://www.w3.org/1999/xlink" x="0px" y="0px" width="532.5px"
	 height="167.165px" viewBox="0 0 532.5 167.165" style="enable-background:new 0 0 532.5 167.165;" xml:space="preserve">
<metadata>
	<sfw  xmlns="&ns_sfw;">
		<slices></slices>
		<sliceSourceBounds  height="599.227" width="553.505" x="8.202" y="-731.031" bottomLeftOrigin="true"></sliceSourceBounds>
		<optimizationSettings>
			<targetSettings  fileFormat="PNG8Format" targetSettingsID="0">
				
					<PNG8Format  transparency="true" webShiftPercent="0" autoReduce="false" ditherAlgorithm="diffusion" numColors="256" ditherPercent="100" interlaced="false" noMatteColor="false" matteColor="#FFFFFF" rolloverMasterPalette="false" reductionAlgorithm="perceptual">
					<colorTable  isExact="false"></colorTable>
					<lockedColors></lockedColors>
					<colorShiftEntries></colorShiftEntries>
				</PNG8Format>
			</targetSettings>
		</optimizationSettings>
	</sfw>
</metadata>
<g>
	<g>
		
			<linearGradient id="SVGID_1_" gradientUnits="userSpaceOnUse" x1="-222.4531" y1="668.3213" x2="-221.0629" y2="666.931" gradientTransform="matrix(44 0 0 -48 9757.8125 32047.7109)">
			<stop  offset="0" style="stop-color:#282B5B"/>
			<stop  offset="1" style="stop-color:#2F315C"/>
		</linearGradient>
		<polygon style="fill:url(#SVGID_1_);" points="-12.298,-18.999 -12.298,24.22 26.028,-6.807 		"/>
		
			<linearGradient id="SVGID_2_" gradientUnits="userSpaceOnUse" x1="-222.2549" y1="669.0176" x2="-220.8646" y2="667.6273" gradientTransform="matrix(50 0 0 -68 11088.8125 45475.0117)">
			<stop  offset="0" style="stop-color:#3E365D"/>
			<stop  offset="1" style="stop-color:#34385F"/>
		</linearGradient>
		<polygon style="fill:url(#SVGID_2_);" points="26.028,-6.807 -12.298,24.22 -12.298,54.107 37.149,87.73 		"/>
		
			<linearGradient id="SVGID_3_" gradientUnits="userSpaceOnUse" x1="-222.5142" y1="667.9951" x2="-221.1241" y2="666.605" gradientTransform="matrix(50 0 0 -53 11088.8125 35449.0352)">
			<stop  offset="0" style="stop-color:#3E4069"/>
			<stop  offset="1" style="stop-color:#2E4E7A"/>
		</linearGradient>
		<polygon style="fill:url(#SVGID_3_);" points="37.149,87.73 -12.298,54.107 -12.298,96.433 -5.948,114.145 		"/>
		
			<linearGradient id="SVGID_4_" gradientUnits="userSpaceOnUse" x1="-222.5249" y1="667.666" x2="-221.1346" y2="666.2758" gradientTransform="matrix(55 0 0 -58 12210.3125 38855.3594)">
			<stop  offset="0" style="stop-color:#0079B0"/>
			<stop  offset="1" style="stop-color:#0774A7"/>
		</linearGradient>
		<polygon style="fill:url(#SVGID_4_);" points="-5.948,114.145 -12.298,187.798 -12.298,194.671 63.565,180.877 		"/>
		
			<linearGradient id="SVGID_5_" gradientUnits="userSpaceOnUse" x1="-222.1577" y1="668.5439" x2="-220.7674" y2="667.1536" gradientTransform="matrix(50 0 0 -67 11107.8125 44872.3477)">
			<stop  offset="0" style="stop-color:#0E6396"/>
			<stop  offset="1" style="stop-color:#156794"/>
		</linearGradient>
		<polygon style="fill:url(#SVGID_5_);" points="-5.948,114.145 63.565,180.877 37.149,87.73 		"/>
		
			<linearGradient id="SVGID_6_" gradientUnits="userSpaceOnUse" x1="-221.7241" y1="666.9131" x2="-220.3338" y2="665.5228" gradientTransform="matrix(65 0 0 -30 14453.1875 19979.7109)">
			<stop  offset="0" style="stop-color:#1C2D5F"/>
			<stop  offset="1" style="stop-color:#252B5B"/>
		</linearGradient>
		<polygon style="fill:url(#SVGID_6_);" points="116.394,-20.709 26.028,-6.807 99.712,20.999 		"/>
		
			<linearGradient id="SVGID_7_" gradientUnits="userSpaceOnUse" x1="-222.1113" y1="668.7998" x2="-220.721" y2="667.4095" gradientTransform="matrix(53 0 0 -68 11795.3125 45475.0117)">
			<stop  offset="0" style="stop-color:#2E2F57"/>
			<stop  offset="1" style="stop-color:#36355C"/>
		</linearGradient>
		<polygon style="fill:url(#SVGID_7_);" points="26.028,-6.807 37.149,87.73 99.712,20.999 		"/>
		
			<linearGradient id="SVGID_8_" gradientUnits="userSpaceOnUse" x1="-221.9678" y1="667.7529" x2="-220.5775" y2="666.3626" gradientTransform="matrix(92 0 0 -48 20441.8125 32081.7109)">
			<stop  offset="0" style="stop-color:#41385E"/>
			<stop  offset="1" style="stop-color:#4C2951"/>
		</linearGradient>
		<polygon style="fill:url(#SVGID_8_);" points="99.712,20.999 37.149,87.73 165.054,75.218 		"/>
		
			<linearGradient id="SVGID_9_" gradientUnits="userSpaceOnUse" x1="-221.582" y1="668.3906" x2="-220.1917" y2="667.0003" gradientTransform="matrix(92 0 0 -59 20441.8125 39498.0273)">
			<stop  offset="0" style="stop-color:#2E4B74"/>
			<stop  offset="1" style="stop-color:#384F79"/>
		</linearGradient>
		<polygon style="fill:url(#SVGID_9_);" points="165.054,75.218 37.149,87.73 113.614,157.243 		"/>
		
			<linearGradient id="SVGID_10_" gradientUnits="userSpaceOnUse" x1="-222.1235" y1="668.2891" x2="-220.7332" y2="666.8987" gradientTransform="matrix(55 0 0 -67 12246.3125 44872.3477)">
			<stop  offset="0" style="stop-color:#294F7A"/>
			<stop  offset="1" style="stop-color:#14759F"/>
		</linearGradient>
		<polygon style="fill:url(#SVGID_10_);" points="37.149,87.73 63.565,180.877 113.614,157.243 		"/>
		
			<linearGradient id="SVGID_11_" gradientUnits="userSpaceOnUse" x1="-221.6226" y1="668.6904" x2="-220.2324" y2="667.3003" gradientTransform="matrix(51 0 0 -75 11415.3125 50228.668)">
			<stop  offset="0" style="stop-color:#296C8F"/>
			<stop  offset="1" style="stop-color:#585976"/>
		</linearGradient>
		<polygon style="fill:url(#SVGID_11_);" points="165.054,75.218 113.614,157.243 184.517,179.486 		"/>
		
			<linearGradient id="SVGID_12_" gradientUnits="userSpaceOnUse" x1="-221.8047" y1="666.4961" x2="-220.4144" y2="665.1058" gradientTransform="matrix(76 0 0 -30 16942.8125 19979.7109)">
			<stop  offset="0" style="stop-color:#362856"/>
			<stop  offset="1" style="stop-color:#3F225A"/>
		</linearGradient>
		<polygon style="fill:url(#SVGID_12_);" points="205.37,1.535 116.394,-20.709 99.712,20.999 		"/>
		
			<linearGradient id="SVGID_13_" gradientUnits="userSpaceOnUse" x1="-221.4043" y1="668.5068" x2="-220.014" y2="667.1166" gradientTransform="matrix(76 0 0 -53 16942.8125 35421.0352)">
			<stop  offset="0" style="stop-color:#3F2854"/>
			<stop  offset="1" style="stop-color:#5A1F56"/>
		</linearGradient>
		<polygon style="fill:url(#SVGID_13_);" points="165.054,75.218 205.37,1.535 99.712,20.999 		"/>
		
			<linearGradient id="SVGID_14_" gradientUnits="userSpaceOnUse" x1="-221.6182" y1="669.0381" x2="-220.2278" y2="667.6478" gradientTransform="matrix(64 0 0 -64 14296.6875 42734.3516)">
			<stop  offset="0" style="stop-color:#2A235C"/>
			<stop  offset="1" style="stop-color:#3C1861"/>
		</linearGradient>
		<polygon style="fill:url(#SVGID_14_);" points="205.37,1.535 182.847,-74.326 166.661,-74.326 116.394,-20.709 		"/>
		
			<linearGradient id="SVGID_15_" gradientUnits="userSpaceOnUse" x1="-221.2358" y1="669.124" x2="-219.8457" y2="667.7339" gradientTransform="matrix(57 0 0 -64 12791.3125 42734.3516)">
			<stop  offset="0" style="stop-color:#371668"/>
			<stop  offset="1" style="stop-color:#591C6C"/>
		</linearGradient>
		<polygon style="fill:url(#SVGID_15_);" points="258.2,-66.585 228.786,-74.326 182.847,-74.326 205.37,1.535 		"/>
		
			<linearGradient id="SVGID_16_" gradientUnits="userSpaceOnUse" x1="-221.1172" y1="668.6064" x2="-219.7269" y2="667.2162" gradientTransform="matrix(48 0 0 -53 10816.8125 35372.0352)">
			<stop  offset="0" style="stop-color:#6D1861"/>
			<stop  offset="1" style="stop-color:#811467"/>
		</linearGradient>
		<polygon style="fill:url(#SVGID_16_);" points="258.2,-66.585 205.37,1.535 272.101,7.096 		"/>
		
			<linearGradient id="SVGID_17_" gradientUnits="userSpaceOnUse" x1="-220.0908" y1="668.7012" x2="-218.7005" y2="667.3109" gradientTransform="matrix(26 0 0 -53 5981.8125 35372.0664)">
			<stop  offset="0" style="stop-color:#8C1977"/>
			<stop  offset="1" style="stop-color:#B1116F"/>
		</linearGradient>
		<polygon style="fill:url(#SVGID_17_);" points="294.346,-48.512 258.2,-66.585 272.101,7.096 		"/>
		
			<linearGradient id="SVGID_18_" gradientUnits="userSpaceOnUse" x1="-220.7139" y1="668.4688" x2="-219.3236" y2="667.0785" gradientTransform="matrix(43 0 0 -54 9757.3125 36055.7344)">
			<stop  offset="0" style="stop-color:#AF0861"/>
			<stop  offset="1" style="stop-color:#C40961"/>
		</linearGradient>
		<polygon style="fill:url(#SVGID_18_);" points="331.881,26.56 294.346,-48.512 272.101,7.096 		"/>
		
			<linearGradient id="SVGID_19_" gradientUnits="userSpaceOnUse" x1="-221.6255" y1="666.4043" x2="-220.2352" y2="665.014" gradientTransform="matrix(51 0 0 -40 11415.3125 26814.3594)">
			<stop  offset="0" style="stop-color:#4A869A"/>
			<stop  offset="1" style="stop-color:#5C929F"/>
		</linearGradient>
		<polygon style="fill:url(#SVGID_19_);" points="113.614,157.243 137.247,212.853 184.517,179.486 		"/>
		
			<linearGradient id="SVGID_20_" gradientUnits="userSpaceOnUse" x1="-221.7764" y1="666.5156" x2="-220.3861" y2="665.1254" gradientTransform="matrix(53 0 0 -40 11822.3125 26814.3594)">
			<stop  offset="0" style="stop-color:#0B86B0"/>
			<stop  offset="1" style="stop-color:#2287A9"/>
		</linearGradient>
		<polygon style="fill:url(#SVGID_20_);" points="113.614,157.243 63.565,180.877 137.247,212.853 		"/>
		
			<linearGradient id="SVGID_21_" gradientUnits="userSpaceOnUse" x1="-220.4233" y1="667.9531" x2="-219.033" y2="666.5628" gradientTransform="matrix(67 0 0 -45 15198.1875 30018.7148)">
			<stop  offset="0" style="stop-color:#EE0552"/>
			<stop  offset="1" style="stop-color:#EC1266"/>
		</linearGradient>
		<polygon style="fill:url(#SVGID_21_);" points="539.028,-6.807 450.054,-49.904 445.881,12.657 		"/>
		
			<linearGradient id="SVGID_22_" gradientUnits="userSpaceOnUse" x1="-218.8047" y1="667.8506" x2="-217.4145" y2="666.4603" gradientTransform="matrix(27 0 0 -58 6310.3125 38846.3594)">
			<stop  offset="0" style="stop-color:#EA5E54"/>
			<stop  offset="1" style="stop-color:#EC3458"/>
		</linearGradient>
		<polygon style="fill:url(#SVGID_22_);" points="406.954,182.268 444.491,139.17 415.296,101.633 		"/>
		
			<linearGradient id="SVGID_23_" gradientUnits="userSpaceOnUse" x1="-219.4995" y1="668.2461" x2="-218.1093" y2="666.8559" gradientTransform="matrix(40 0 0 -66 9189.8125 44238.6797)">
			<stop  offset="0" style="stop-color:#EB7E48"/>
			<stop  offset="1" style="stop-color:#EC794E"/>
		</linearGradient>
		<polygon style="fill:url(#SVGID_23_);" points="462.564,230.927 444.491,139.17 406.954,182.268 		"/>
		
			<linearGradient id="SVGID_24_" gradientUnits="userSpaceOnUse" x1="-219.9111" y1="667.9365" x2="-218.5209" y2="666.5463" gradientTransform="matrix(48 0 0 -66 10988.8125 44238.6797)">
			<stop  offset="0" style="stop-color:#E8984E"/>
			<stop  offset="1" style="stop-color:#EC7F4E"/>
		</linearGradient>
		<polygon style="fill:url(#SVGID_24_);" points="462.564,230.927 511.223,226.755 444.491,139.17 		"/>
		
			<linearGradient id="SVGID_25_" gradientUnits="userSpaceOnUse" x1="-218.8735" y1="665.332" x2="-217.4832" y2="663.9417" gradientTransform="matrix(30 0 0 -26 6963.7813 17359.0352)">
			<stop  offset="0" style="stop-color:#EB0256"/>
			<stop  offset="1" style="stop-color:#EB0355"/>
		</linearGradient>
		<polygon style="fill:url(#SVGID_25_);" points="415.296,101.633 433.369,65.486 391.661,68.267 		"/>
		
			<linearGradient id="SVGID_26_" gradientUnits="userSpaceOnUse" x1="-219.6323" y1="667.4424" x2="-218.2422" y2="666.0522" gradientTransform="matrix(39 0 0 -40 8957.3125 26710.3594)">
			<stop  offset="0" style="stop-color:#E9054C"/>
			<stop  offset="1" style="stop-color:#EB024D"/>
		</linearGradient>
		<polygon style="fill:url(#SVGID_26_);" points="391.661,68.267 433.369,65.486 445.881,12.657 		"/>
		
			<linearGradient id="SVGID_27_" gradientUnits="userSpaceOnUse" x1="-217.6699" y1="667.999" x2="-216.2798" y2="666.6089" gradientTransform="matrix(21 0 0 -53 4987.3125 35467.0664)">
			<stop  offset="0" style="stop-color:#ED0E59"/>
			<stop  offset="1" style="stop-color:#EE1E5A"/>
		</linearGradient>
		<polygon style="fill:url(#SVGID_27_);" points="444.491,139.17 433.369,65.486 415.296,101.633 		"/>
		
			<linearGradient id="SVGID_28_" gradientUnits="userSpaceOnUse" x1="-220.4634" y1="668.7041" x2="-219.0732" y2="667.3139" gradientTransform="matrix(49 0 0 -54 11102.3125 36055.7031)">
			<stop  offset="0" style="stop-color:#BD0E72"/>
			<stop  offset="1" style="stop-color:#CD045C"/>
		</linearGradient>
		<polygon style="fill:url(#SVGID_28_);" points="362.466,-30.441 294.346,-48.512 331.881,26.56 		"/>
		
			<linearGradient id="SVGID_29_" gradientUnits="userSpaceOnUse" x1="-220.2183" y1="668.9971" x2="-218.8281" y2="667.6069" gradientTransform="matrix(43 0 0 -71 9800.3125 47470.0078)">
			<stop  offset="0" style="stop-color:#DD0043"/>
			<stop  offset="1" style="stop-color:#DD0355"/>
		</linearGradient>
		<polygon style="fill:url(#SVGID_29_);" points="391.661,68.267 362.466,-30.441 331.881,26.56 		"/>
		
			<linearGradient id="SVGID_30_" gradientUnits="userSpaceOnUse" x1="-220.4526" y1="668.9902" x2="-219.0623" y2="667.5999" gradientTransform="matrix(60 0 0 -71 13587.8125 47470.0078)">
			<stop  offset="0" style="stop-color:#E6024C"/>
			<stop  offset="1" style="stop-color:#DE0253"/>
		</linearGradient>
		<polygon style="fill:url(#SVGID_30_);" points="445.881,12.657 362.466,-30.441 391.661,68.267 		"/>
		
			<linearGradient id="SVGID_31_" gradientUnits="userSpaceOnUse" x1="-220.2334" y1="668.4307" x2="-218.8431" y2="667.0403" gradientTransform="matrix(63 0 0 -45 14252.1875 30018.7148)">
			<stop  offset="0" style="stop-color:#E8005B"/>
			<stop  offset="1" style="stop-color:#DC116F"/>
		</linearGradient>
		<polygon style="fill:url(#SVGID_31_);" points="450.054,-49.904 362.466,-30.441 445.881,12.657 		"/>
		
			<linearGradient id="SVGID_32_" gradientUnits="userSpaceOnUse" x1="-220.8828" y1="667.7617" x2="-219.4926" y2="666.3715" gradientTransform="matrix(52 0 0 -56 11718.8125 37542.0313)">
			<stop  offset="0" style="stop-color:#BC8777"/>
			<stop  offset="1" style="stop-color:#CD8E6F"/>
		</linearGradient>
		<polygon style="fill:url(#SVGID_32_);" points="227.614,178.097 299.905,230.926 272.101,153.072 		"/>
		
			<linearGradient id="SVGID_33_" gradientUnits="userSpaceOnUse" x1="-221.0059" y1="667.5273" x2="-219.6157" y2="666.1371" gradientTransform="matrix(63 0 0 -56 14187.1875 37542.0313)">
			<stop  offset="0" style="stop-color:#B58E72"/>
			<stop  offset="1" style="stop-color:#C58963"/>
		</linearGradient>
		<polygon style="fill:url(#SVGID_33_);" points="272.101,153.072 299.905,230.926 359.686,207.292 		"/>
		
			<linearGradient id="SVGID_34_" gradientUnits="userSpaceOnUse" x1="-221.3081" y1="668.7119" x2="-219.9179" y2="667.3217" gradientTransform="matrix(48 0 0 -75 10787.8125 50228.668)">
			<stop  offset="0" style="stop-color:#513C63"/>
			<stop  offset="1" style="stop-color:#7B5874"/>
		</linearGradient>
		<polygon style="fill:url(#SVGID_34_);" points="231.784,105.804 165.054,75.218 184.517,179.486 		"/>
		
			<linearGradient id="SVGID_35_" gradientUnits="userSpaceOnUse" x1="-221.0669" y1="667.7402" x2="-219.6768" y2="666.3501" gradientTransform="matrix(34 0 0 -53 7700.8125 35496.0664)">
			<stop  offset="0" style="stop-color:#8F8385"/>
			<stop  offset="1" style="stop-color:#B45C6B"/>
		</linearGradient>
		<polygon style="fill:url(#SVGID_35_);" points="231.784,105.804 184.517,179.486 227.614,178.097 		"/>
		
			<linearGradient id="SVGID_36_" gradientUnits="userSpaceOnUse" x1="-220.8896" y1="667.4561" x2="-219.4995" y2="666.0659" gradientTransform="matrix(32 0 0 -52 7288.8125 34825.4023)">
			<stop  offset="0" style="stop-color:#95646F"/>
			<stop  offset="1" style="stop-color:#B04D5C"/>
		</linearGradient>
		<polygon style="fill:url(#SVGID_36_);" points="272.101,153.072 231.784,105.804 227.614,178.097 		"/>
		
			<linearGradient id="SVGID_37_" gradientUnits="userSpaceOnUse" x1="-221.5396" y1="668.1055" x2="-220.1492" y2="666.7151" gradientTransform="matrix(63 0 0 -53 14110.1875 35421.0352)">
			<stop  offset="0" style="stop-color:#6E194F"/>
			<stop  offset="1" style="stop-color:#781254"/>
		</linearGradient>
		<polygon style="fill:url(#SVGID_37_);" points="252.64,44.633 205.37,1.535 165.054,75.218 		"/>
		
			<linearGradient id="SVGID_38_" gradientUnits="userSpaceOnUse" x1="-221.1772" y1="667.7061" x2="-219.787" y2="666.3159" gradientTransform="matrix(63 0 0 -44 14110.1875 29416.0508)">
			<stop  offset="0" style="stop-color:#7E144C"/>
			<stop  offset="1" style="stop-color:#A3104C"/>
		</linearGradient>
		<polygon style="fill:url(#SVGID_38_);" points="252.64,44.633 165.054,75.218 231.784,105.804 		"/>
		
			<linearGradient id="SVGID_39_" gradientUnits="userSpaceOnUse" x1="-220.8701" y1="666.8096" x2="-219.4798" y2="665.4193" gradientTransform="matrix(48 0 0 -31 10816.8125 20666.375)">
			<stop  offset="0" style="stop-color:#800F56"/>
			<stop  offset="1" style="stop-color:#9D0652"/>
		</linearGradient>
		<polygon style="fill:url(#SVGID_39_);" points="272.101,7.096 205.37,1.535 252.64,44.633 		"/>
		
			<linearGradient id="SVGID_40_" gradientUnits="userSpaceOnUse" x1="-221.1709" y1="667.29" x2="-219.7806" y2="665.8998" gradientTransform="matrix(49 0 0 -44 11057.3125 29416.0508)">
			<stop  offset="0" style="stop-color:#C1164C"/>
			<stop  offset="1" style="stop-color:#B20949"/>
		</linearGradient>
		<polygon style="fill:url(#SVGID_40_);" points="299.905,93.292 252.64,44.633 231.784,105.804 		"/>
		
			<linearGradient id="SVGID_41_" gradientUnits="userSpaceOnUse" x1="-221.0869" y1="665.7666" x2="-219.6967" y2="664.3763" gradientTransform="matrix(57 0 0 -27 12844.3125 17987.6992)">
			<stop  offset="0" style="stop-color:#A30554"/>
			<stop  offset="1" style="stop-color:#AE0349"/>
		</linearGradient>
		<polygon style="fill:url(#SVGID_41_);" points="272.101,7.096 252.64,44.633 331.881,26.56 		"/>
		
			<linearGradient id="SVGID_42_" gradientUnits="userSpaceOnUse" x1="-220.6997" y1="668.1064" x2="-219.3095" y2="666.7162" gradientTransform="matrix(57 0 0 -48 12844.3125 32085.7109)">
			<stop  offset="0" style="stop-color:#C80447"/>
			<stop  offset="1" style="stop-color:#BD0247"/>
		</linearGradient>
		<polygon style="fill:url(#SVGID_42_);" points="331.881,26.56 252.64,44.633 299.905,93.292 		"/>
		
			<linearGradient id="SVGID_43_" gradientUnits="userSpaceOnUse" x1="-220.0479" y1="667.8105" x2="-218.6575" y2="666.4202" gradientTransform="matrix(53 0 0 -53 12088.3125 35467.0352)">
			<stop  offset="0" style="stop-color:#EE0C5A"/>
			<stop  offset="1" style="stop-color:#EF305C"/>
		</linearGradient>
		<polygon style="fill:url(#SVGID_43_);" points="444.491,139.17 507.052,107.194 433.369,65.486 		"/>
		
			<linearGradient id="SVGID_44_" gradientUnits="userSpaceOnUse" x1="-219.4409" y1="669.0908" x2="-218.0507" y2="667.7006" gradientTransform="matrix(48 0 0 -86 10988.8125 57628.9844)">
			<stop  offset="0" style="stop-color:#EF624B"/>
			<stop  offset="1" style="stop-color:#EF6D48"/>
		</linearGradient>
		<polygon style="fill:url(#SVGID_44_);" points="511.223,226.755 507.052,107.194 444.491,139.17 		"/>
		
			<linearGradient id="SVGID_45_" gradientUnits="userSpaceOnUse" x1="-219.127" y1="668.6631" x2="-217.7366" y2="667.2727" gradientTransform="matrix(41 0 0 -86 9483.3125 57628.9844)">
			<stop  offset="0" style="stop-color:#EE8D40"/>
			<stop  offset="1" style="stop-color:#EF5D47"/>
		</linearGradient>
		<polygon style="fill:url(#SVGID_45_);" points="507.052,107.194 511.223,226.755 541.207,184.938 541.207,134.683 		"/>
		
			<linearGradient id="SVGID_46_" gradientUnits="userSpaceOnUse" x1="-220.189" y1="667.126" x2="-218.7987" y2="665.7358" gradientTransform="matrix(58 0 0 -38 13195.8125 25369.0313)">
			<stop  offset="0" style="stop-color:#EC0054"/>
			<stop  offset="1" style="stop-color:#EC0041"/>
		</linearGradient>
		<polygon style="fill:url(#SVGID_46_);" points="433.369,65.486 514.004,34.901 445.881,12.657 		"/>
		
			<linearGradient id="SVGID_47_" gradientUnits="userSpaceOnUse" x1="-219.9976" y1="666.7354" x2="-218.6073" y2="665.3451" gradientTransform="matrix(67 0 0 -30 15198.1875 19989.7109)">
			<stop  offset="0" style="stop-color:#ED0050"/>
			<stop  offset="1" style="stop-color:#EC0145"/>
		</linearGradient>
		<polygon style="fill:url(#SVGID_47_);" points="514.004,34.901 539.028,-6.807 445.881,12.657 		"/>
		
			<linearGradient id="SVGID_48_" gradientUnits="userSpaceOnUse" x1="-219.0103" y1="666.3594" x2="-217.6201" y2="664.9692" gradientTransform="matrix(40 0 0 -30 9266.8125 19989.7109)">
			<stop  offset="0" style="stop-color:#EE0154"/>
			<stop  offset="1" style="stop-color:#ED003A"/>
		</linearGradient>
		<polygon style="fill:url(#SVGID_48_);" points="514.004,34.901 541.207,26.06 541.207,-5.122 539.028,-6.807 		"/>
		
			<linearGradient id="SVGID_49_" gradientUnits="userSpaceOnUse" x1="-220.002" y1="666.0273" x2="-218.6117" y2="664.6371" gradientTransform="matrix(63 0 0 -30 14303.1875 20041.7109)">
			<stop  offset="0" style="stop-color:#EE065B"/>
			<stop  offset="1" style="stop-color:#F01352"/>
		</linearGradient>
		<polygon style="fill:url(#SVGID_49_);" points="433.369,65.486 507.052,107.194 520.955,82.169 		"/>
		
			<linearGradient id="SVGID_50_" gradientUnits="userSpaceOnUse" x1="-220.0601" y1="666.7861" x2="-218.6698" y2="665.3959" gradientTransform="matrix(63 0 0 -34 14303.1875 22702.3711)">
			<stop  offset="0" style="stop-color:#ED0044"/>
			<stop  offset="1" style="stop-color:#EE0030"/>
		</linearGradient>
		<polygon style="fill:url(#SVGID_50_);" points="520.955,82.169 514.004,34.901 433.369,65.486 		"/>
		
			<linearGradient id="SVGID_51_" gradientUnits="userSpaceOnUse" x1="-218.9712" y1="667.7178" x2="-217.5811" y2="666.3276" gradientTransform="matrix(41 0 0 -51 9483.3125 34137.7383)">
			<stop  offset="0" style="stop-color:#F01E4D"/>
			<stop  offset="1" style="stop-color:#F0283D"/>
		</linearGradient>
		<polygon style="fill:url(#SVGID_51_);" points="507.052,107.194 541.207,134.683 541.207,115.486 520.955,82.169 		"/>
		
			<linearGradient id="SVGID_52_" gradientUnits="userSpaceOnUse" x1="-219.0024" y1="667.7148" x2="-217.6122" y2="666.3246" gradientTransform="matrix(40 0 0 -47 9266.8125 31408.0469)">
			<stop  offset="0" style="stop-color:#EA0121"/>
			<stop  offset="1" style="stop-color:#EE0035"/>
		</linearGradient>
		<polygon style="fill:url(#SVGID_52_);" points="520.955,82.169 541.207,54.974 541.207,26.06 514.004,34.901 		"/>
		
			<linearGradient id="SVGID_53_" gradientUnits="userSpaceOnUse" x1="-218.5" y1="669.2197" x2="-217.1099" y2="667.8297" gradientTransform="matrix(35 0 0 -98 8164.3125 65612.1484)">
			<stop  offset="0" style="stop-color:#EE363E"/>
			<stop  offset="1" style="stop-color:#F0003F"/>
		</linearGradient>
		<polygon style="fill:url(#SVGID_53_);" points="541.207,115.486 541.207,54.974 520.955,82.169 		"/>
		
			<linearGradient id="SVGID_54_" gradientUnits="userSpaceOnUse" x1="-220.6367" y1="666.1455" x2="-219.2464" y2="664.7552" gradientTransform="matrix(34 0 0 -34 7734.8438 22753.3711)">
			<stop  offset="0" style="stop-color:#C02452"/>
			<stop  offset="1" style="stop-color:#CD505E"/>
		</linearGradient>
		<polygon style="fill:url(#SVGID_54_);" points="279.051,140.56 231.784,105.804 272.101,153.072 		"/>
		
			<linearGradient id="SVGID_55_" gradientUnits="userSpaceOnUse" x1="-220.6875" y1="666.4502" x2="-219.2973" y2="665.0599" gradientTransform="matrix(49 0 0 -34 11057.3125 22744.3711)">
			<stop  offset="0" style="stop-color:#C12452"/>
			<stop  offset="1" style="stop-color:#C72955"/>
		</linearGradient>
		<polygon style="fill:url(#SVGID_55_);" points="299.905,93.292 231.784,105.804 279.051,140.56 		"/>
		
			<linearGradient id="SVGID_56_" gradientUnits="userSpaceOnUse" x1="-220.9106" y1="667.1953" x2="-219.5204" y2="665.8051" gradientTransform="matrix(63 0 0 -48 14187.1875 32167.7109)">
			<stop  offset="0" style="stop-color:#D67E5D"/>
			<stop  offset="1" style="stop-color:#D7775E"/>
		</linearGradient>
		<polygon style="fill:url(#SVGID_56_);" points="272.101,153.072 359.686,207.292 279.051,140.56 		"/>
		
			<linearGradient id="SVGID_57_" gradientUnits="userSpaceOnUse" x1="-220.9341" y1="666.0947" x2="-219.5439" y2="664.7045" gradientTransform="matrix(61 0 0 -34 13749.1875 22744.3711)">
			<stop  offset="0" style="stop-color:#D64E66"/>
			<stop  offset="1" style="stop-color:#D32B53"/>
		</linearGradient>
		<polygon style="fill:url(#SVGID_57_);" points="363.858,108.584 299.905,93.292 279.051,140.56 		"/>
		
			<linearGradient id="SVGID_58_" gradientUnits="userSpaceOnUse" x1="-220.5859" y1="668.7051" x2="-219.1957" y2="667.3149" gradientTransform="matrix(61 0 0 -71 13749.1875 47570.0078)">
			<stop  offset="0" style="stop-color:#D55E62"/>
			<stop  offset="1" style="stop-color:#DB6757"/>
		</linearGradient>
		<polygon style="fill:url(#SVGID_58_);" points="359.686,207.292 363.858,108.584 279.051,140.56 		"/>
		
			<linearGradient id="SVGID_59_" gradientUnits="userSpaceOnUse" x1="-220.585" y1="668.3037" x2="-219.1947" y2="666.9135" gradientTransform="matrix(46 0 0 -59 10441.8125 39462.9961)">
			<stop  offset="0" style="stop-color:#C50446"/>
			<stop  offset="1" style="stop-color:#D50D46"/>
		</linearGradient>
		<polygon style="fill:url(#SVGID_59_);" points="363.858,108.584 331.881,26.56 299.905,93.292 		"/>
		
			<linearGradient id="SVGID_60_" gradientUnits="userSpaceOnUse" x1="-220.1865" y1="668.4238" x2="-218.7963" y2="667.0336" gradientTransform="matrix(43 0 0 -59 9800.3125 39463.0273)">
			<stop  offset="0" style="stop-color:#DA0044"/>
			<stop  offset="1" style="stop-color:#E20E4C"/>
		</linearGradient>
		<polygon style="fill:url(#SVGID_60_);" points="391.661,68.267 331.881,26.56 363.858,108.584 		"/>
		
			<linearGradient id="SVGID_61_" gradientUnits="userSpaceOnUse" x1="-219.8809" y1="668.21" x2="-218.4905" y2="666.8196" gradientTransform="matrix(34 0 0 -71 7826.8125 47570.0078)">
			<stop  offset="0" style="stop-color:#E19351"/>
			<stop  offset="1" style="stop-color:#E5614A"/>
		</linearGradient>
		<polygon style="fill:url(#SVGID_61_);" points="359.686,207.292 406.954,182.268 363.858,108.584 		"/>
		
			<linearGradient id="SVGID_62_" gradientUnits="userSpaceOnUse" x1="-219.9014" y1="665.5205" x2="-218.511" y2="664.1302" gradientTransform="matrix(37 0 0 -29 8494.3125 19373.0273)">
			<stop  offset="0" style="stop-color:#E4024D"/>
			<stop  offset="1" style="stop-color:#E2104B"/>
		</linearGradient>
		<polygon style="fill:url(#SVGID_62_);" points="415.296,101.633 391.661,68.267 363.858,108.584 		"/>
		
			<linearGradient id="SVGID_63_" gradientUnits="userSpaceOnUse" x1="-219.4502" y1="668.3027" x2="-218.0601" y2="666.9126" gradientTransform="matrix(37 0 0 -58 8494.3125 38846.3594)">
			<stop  offset="0" style="stop-color:#EA5D54"/>
			<stop  offset="1" style="stop-color:#E72852"/>
		</linearGradient>
		<polygon style="fill:url(#SVGID_63_);" points="406.954,182.268 415.296,101.633 363.858,108.584 		"/>
		<linearGradient id="SVGID_64_" gradientUnits="userSpaceOnUse" x1="-11.0557" y1="202.6855" x2="540.1172" y2="202.6855">
			<stop  offset="0" style="stop-color:#4A90FF"/>
			<stop  offset="0.2714" style="stop-color:#4F93B3"/>
			<stop  offset="0.6299" style="stop-color:#559753"/>
			<stop  offset="0.8808" style="stop-color:#599917"/>
			<stop  offset="1" style="stop-color:#5A9A00"/>
		</linearGradient>
		<rect x="-11.056" y="-74.326" style="fill:url(#SVGID_64_);" width="551.173" height="554.022"/>
		<path style="fill:#0A0909;" d="M496.206,16.873c0-3.683-2.367-4.866-6.839-4.866h-4.077v10.521h4.077
			C493.839,22.528,496.206,20.556,496.206,16.873z"/>
		<path style="fill:#0A0909;" d="M140.959,25.027c-1.052-4.077-2.104-9.272-3.157-13.547h-0.263
			c-0.92,4.341-1.973,9.47-3.025,13.547l-0.723,2.96h7.891L140.959,25.027z"/>
		<path style="fill:#0A0909;" d="M33.954,82.219h-1.607v60.123h1.607c15.111,0,27.007-6.109,27.007-30.545
			C60.961,87.363,49.065,82.219,33.954,82.219z"/>
		<path style="fill:#0A0909;" d="M301.023,12.007h-4.734v11.312h4.734c4.472,0,6.576-2.236,6.576-6.051
			S305.231,12.007,301.023,12.007z"/>
		<path style="fill:#0A0909;" d="M453.066,25.027c-1.053-4.077-2.104-9.272-3.157-13.547h-0.263
			c-0.921,4.341-1.973,9.47-3.025,13.547l-0.724,2.96h7.892L453.066,25.027z"/>
		<path style="fill:#0A0909;" d="M27.059,16.873c0-3.683-2.368-4.866-6.839-4.866h-4.077v10.521h4.077
			C24.691,22.528,27.059,20.556,27.059,16.873z"/>
		<path style="fill:#0A0909;" d="M-2.561-119.53v358.039h535.4V-119.53H-2.561z M515.408,3.063h11.312v42.745h-11.312V3.063z
			 M473.979,3.063h16.178c9.207,0,17.099,3.156,17.099,13.81c0,6.116-2.763,10.128-6.906,12.363l9.272,16.572h-12.626l-7.365-14.336
			h-4.34v14.336h-11.312V3.063z M405.85,3.063l4.471,18.677c1.185,4.537,1.973,8.943,3.157,13.546h0.263
			c1.184-4.603,2.038-9.009,3.156-13.546l4.341-18.677h11.573l-12.626,42.745h-13.679L393.88,3.063H405.85z M375.072,29.696
			l-5.327-2.235c-4.604-1.841-8.615-5.721-8.615-11.903c0-7.299,6.577-13.283,15.915-13.283c4.866,0,10.259,1.841,14.204,5.721
			l-5.655,7.103c-2.894-2.039-5.393-3.091-8.549-3.091c-2.762,0-4.473,0.986-4.473,2.894c0,2.039,2.434,2.762,6.313,4.274
			l5.195,2.039c5.327,2.104,8.352,5.787,8.352,11.705c0,7.234-6.05,13.679-16.703,13.679c-5.393,0-11.574-1.973-16.178-6.116
			l6.445-7.76c3.024,2.434,6.839,4.144,9.995,4.144c3.42,0,4.866-1.118,4.866-3.025C380.858,31.801,378.688,31.144,375.072,29.696z
			 M210.141,38.969l17.492-26.436h-15.782v-9.47h29.724v6.839l-17.492,26.437h17.624v9.47h-31.565V38.969z M46.261,3.063h27.62v9.47
			H57.572v6.707h13.941v9.47H57.572v7.629h16.966v9.47H46.261V3.063z M4.832,3.063h16.177c9.207,0,17.098,3.156,17.098,13.81
			c0,6.116-2.762,10.128-6.905,12.363l9.272,16.572H27.848l-7.365-14.336h-4.34v14.336H4.832V3.063z M37.169,164.525H4.696V60.034
			h30.865c31.83,0,53.692,14.79,53.692,51.763C89.254,148.771,67.391,164.525,37.169,164.525z M98.214,29.368l-4.078,5.787v10.653
			H82.825V3.063h11.311v15.914h0.263l10.785-15.914h12.363l-12.758,17.36l13.948,23.206l12.357-40.566h13.678l13.021,42.745h-11.969
			l-2.104-9.075h-11.969l-2.104,9.075h-9.601l-1.309-2.179l-0.664,2.179h-10.39L98.214,29.368z M177.024,164.525H107.9V60.034
			h67.517v23.148h-39.868V99.58h34.081v23.148h-34.081v18.647h41.475V164.525z M173.051,40.481l6.444-7.76
			c3.025,2.434,6.839,4.144,9.996,4.144c3.42,0,4.866-1.118,4.866-3.025c0-2.039-2.17-2.696-5.787-4.144l-5.327-2.235
			c-4.603-1.841-8.614-5.721-8.614-11.903c0-7.299,6.576-13.283,15.914-13.283c4.866,0,10.26,1.841,14.205,5.721l-5.656,7.103
			c-2.893-2.039-5.393-3.091-8.549-3.091c-2.762,0-4.472,0.986-4.472,2.894c0,2.039,2.434,2.762,6.313,4.274l5.195,2.039
			c5.326,2.104,8.352,5.787,8.352,11.705c0,7.234-6.05,13.679-16.703,13.679C183.836,46.598,177.654,44.625,173.051,40.481z
			 M230.394,166.455c-13.182,0-28.293-4.824-39.546-14.951l15.754-18.97c7.396,5.949,16.719,10.128,24.436,10.128
			c8.359,0,11.896-2.732,11.896-7.395c0-4.982-5.305-6.59-14.146-10.127l-13.021-5.466c-11.254-4.501-21.06-13.986-21.06-29.097
			c0-17.845,16.076-32.474,38.903-32.474c11.896,0,25.078,4.502,34.723,13.986l-13.824,17.362
			c-7.074-4.984-13.183-7.557-20.898-7.557c-6.752,0-10.932,2.412-10.932,7.074c0,4.983,5.948,6.751,15.433,10.449l12.699,4.983
			c13.021,5.144,20.416,14.146,20.416,28.614C271.226,150.7,256.437,166.455,230.394,166.455z M276.691,45.809h-28.277V3.063h27.62
			v9.47h-16.31v6.707h13.941v9.47h-13.941v7.629h16.967V45.809z M315.592,164.525h-27.649V60.034h27.649V164.525z M301.55,32.262
			h-5.261v13.547h-11.312V3.063h16.572c9.206,0,17.098,3.42,17.098,14.204C318.647,27.724,310.493,32.262,301.55,32.262z
			 M325.618,3.063h27.62v9.47H336.93v6.707h13.941v9.47H336.93v7.629h16.967v9.47h-28.278V3.063z M422.332,153.594
			c-7.716,6.43-21.219,12.861-36.009,12.861c-28.615,0-52.085-17.684-52.085-53.371c0-35.046,24.113-54.979,52.728-54.979
			c14.79,0,26.043,6.431,33.438,13.825l-15.11,17.041c-5.145-4.502-9.646-7.074-18.005-7.074c-14.147,0-24.757,11.253-24.757,30.222
			c0,19.613,8.682,30.544,27.329,30.544c2.893,0,6.108-0.643,8.037-1.928v-14.469h-15.433V103.76h39.867V153.594z M430.181,45.809
			l13.021-42.745h13.679l13.021,42.745h-11.97l-2.104-9.075h-11.968l-2.104,9.075H430.181z M527.465,164.525h-28.294l-23.148-46.78
			l-9.967-23.309h-0.643c1.285,11.896,3.536,27.007,3.536,39.866v30.223h-26.364V60.034h28.294l23.148,46.618l9.967,23.472h0.643
			c-1.285-11.254-3.536-27.007-3.536-39.868V60.034h26.364V164.525z"/>
	</g>
</g>
</svg>
