<?xml version="1.0" encoding="utf-8"?>
<!-- Generator: Adobe Illustrator 16.0.0, SVG Export Plug-In . SVG Version: 6.00 Build 0)  -->
<!DOCTYPE svg PUBLIC "-//W3C//DTD SVG 1.1//EN" "http://www.w3.org/Graphics/SVG/1.1/DTD/svg11.dtd" [
	<!ENTITY ns_extend "http://ns.adobe.com/Extensibility/1.0/">
	<!ENTITY ns_ai "http://ns.adobe.com/AdobeIllustrator/10.0/">
	<!ENTITY ns_graphs "http://ns.adobe.com/Graphs/1.0/">
	<!ENTITY ns_vars "http://ns.adobe.com/Variables/1.0/">
	<!ENTITY ns_imrep "http://ns.adobe.com/ImageReplacement/1.0/">
	<!ENTITY ns_sfw "http://ns.adobe.com/SaveForWeb/1.0/">
	<!ENTITY ns_custom "http://ns.adobe.com/GenericCustomNamespace/1.0/">
	<!ENTITY ns_adobe_xpath "http://ns.adobe.com/XPath/1.0/">
]>
<svg version="1.1" xmlns:x="&ns_extend;" xmlns:i="&ns_ai;" xmlns:graph="&ns_graphs;"
	 xmlns="http://www.w3.org/2000/svg" xmlns:xlink="http://www.w3.org/1999/xlink" x="0px" y="0px" width="554.972px"
	 height="177.087px" viewBox="0 0 554.972 177.087" style="enable-background:new 0 0 554.972 177.087;" xml:space="preserve">
<metadata>
	<sfw  xmlns="&ns_sfw;">
		<slices></slices>
		<sliceSourceBounds  height="459.181" width="580.088" x="119.979" y="-482.598" bottomLeftOrigin="true"></sliceSourceBounds>
	</sfw>
</metadata>
<g id="triangles">
	<polyline style="fill:#48A3AE;" points="190.914,186.117 234.115,184.759 216.727,265.727 190.914,186.117 	"/>
	<polygon style="fill:#36A5BE;" points="137.931,222.798 190.914,186.117 216.727,265.727 	"/>
	<polyline style="fill:#319DC4;" points="116.74,163.566 140.106,224.971 191.458,185.848 116.74,163.566 	"/>
	<polygon style="fill:#22409A;" points="-13.68,-74.718 23,-7.063 52.345,-74.718 	"/>
	<polygon style="fill:#2E2E79;" points="118.369,-20.105 98.806,22.552 211.292,2.718 	"/>
	<polygon style="fill:#273B86;" points="19.468,-10.324 36.042,92.991 100.436,22.28 99.894,22.28 	"/>
	<polygon style="fill:#32499E;" points="-16.125,-20.92 23,-7.063 -13.68,23.095 	"/>
	<polygon style="fill:#2B317C;" points="52.345,-74.718 23,-7.063 118.369,-20.105 85.765,-73.902 	"/>
	<polygon style="fill:#2B317C;" points="-13.68,-74.718 -16.125,-20.92 23,-7.063 	"/>
	<polygon style="fill:#2D2B70;" points="118.369,-20.105 118.369,-73.088 167.275,-75.533 	"/>
	<polygon style="fill:#33499F;" points="22.73,-6.792 118.098,-19.833 99.351,22.01 	"/>
	<polygon style="fill:#2E2A6F;" points="186.023,-74.718 167.275,-75.533 118.369,-20.105 211.292,2.718 	"/>
	<polygon style="fill:#2E2A6F;" points="98.534,22.552 168.09,77.708 211.292,2.718 	"/>
	<polygon style="fill:#3E5CAA;" points="36.042,92.38 23,-7.063 -13.68,23.095 -13.68,58.96 	"/>
	<polygon style="fill:#2F5BAA;" points="99.621,21.738 168.363,77.708 35.771,92.923 	"/>
	<polygon style="fill:#2E2A70;" points="52.345,-74.718 118.641,-73.088 118.369,-20.105 	"/>
	<polygon style="fill:#3E6FB7;" points="-13.68,80.969 36.042,92.38 -7.158,119.278 -14.494,114.388 	"/>
	<polygon style="fill:#3E6FB7;" points="168.09,77.708 115.923,163.294 36.042,92.38 	"/>
	<polygon style="fill:#437DC0;" points="61.312,187.747 36.042,92.38 115.923,163.294 	"/>
	<polygon style="fill:#427EC1;" points="168.09,77.708 115.923,163.294 190.914,186.117 	"/>
	<polygon style="fill:#2C2159;" points="186.023,-74.718 211.292,2.718 269.979,-75.533 	"/>
	<polygon style="fill:#481E57;" points="259.383,47.548 211.292,2.718 168.09,77.708 	"/>
	<polygon style="fill:#4D2464;" points="270.251,-76.074 280.848,7.202 210.884,3.261 	"/>
	<polygon style="fill:#621B57;" points="211.292,2.718 259.383,47.548 280.576,6.793 	"/>
	<polygon style="fill:#691951;" points="168.09,77.708 236.56,110.312 259.383,47.548 	"/>
	<polygon style="fill:#7A2062;" points="269.979,-75.533 303.398,-50.265 280.576,6.793 	"/>
	<polygon style="fill:#72285F;" points="269.979,-75.533 341.708,-75.533 303.398,-50.265 	"/>
	<polygon style="fill:#AD1E54;" points="341.708,-75.533 363.716,-75.533 375.127,-30.702 303.398,-50.265 	"/>
	<polygon style="fill:#BC3C4D;" points="363.716,-75.533 422.405,-77.163 375.127,-30.702 	"/>
	<polygon style="fill:#CE2929;" points="422.405,-77.163 454.194,-77.163 464.791,-51.08 375.127,-30.702 	"/>
	<polygon style="fill:#CA583E;" points="454.194,-77.163 481.908,-76.348 464.791,-51.08 	"/>
	<polygon style="fill:#E33326;" points="481.908,-76.348 516.958,-74.718 560.159,-7.063 464.791,-51.08 	"/>
	<polygon style="fill:#DF4326;" points="511.251,-75.533 559.343,-75.533 560.159,-7.063 	"/>
	<polygon style="fill:#D32027;" points="464.791,-51.08 460.714,11.684 527.554,43.473 563.963,-8.149 	"/>
	<polygon style="fill:#DA1F27;" points="375.127,-30.702 464.791,-51.08 462.889,13.586 	"/>
	<polygon style="fill:#E61E25;" points="375.127,-30.702 403.657,71.187 460.714,11.684 	"/>
	<polygon style="fill:#D2202C;" points="375.127,-30.702 341.166,27.715 403.657,71.187 	"/>
	<polygon style="fill:#B01E4A;" points="303.398,-50.265 341.166,27.715 375.127,-30.702 	"/>
	<polygon style="fill:#9F1D52;" points="303.398,-50.265 279.761,8.695 341.166,27.715 	"/>
	<polygon style="fill:#891848;" points="280.576,6.793 259.383,47.548 341.166,27.715 	"/>
	<polygon style="fill:#AE1E3A;" points="259.383,47.548 308.561,98.358 341.166,27.715 	"/>
	<polygon style="fill:#BE2032;" points="341.166,27.715 308.561,98.358 375.401,112.487 	"/>
	<polygon style="fill:#D51F29;" points="341.166,27.715 403.657,71.187 375.401,112.487 	"/>
	<polygon style="fill:#A11C47;" points="259.383,47.548 236.56,110.312 308.561,98.358 	"/>
	<polygon style="fill:#B12C4A;" points="236.56,110.312 308.561,98.358 287.369,145.634 	"/>
	<polygon style="fill:#C94F47;" points="308.561,98.358 287.369,145.634 375.401,112.487 	"/>
	<polygon style="fill:#B84F52;" points="236.56,110.312 278.674,160.849 287.369,145.634 	"/>
	<polygon style="fill:#806B69;" points="236.56,110.312 234.115,184.759 278.674,160.849 	"/>
	<polygon style="fill:#857D80;" points="236.56,110.312 190.914,186.117 234.115,184.759 	"/>
	<polygon style="fill:#3A517D;" points="168.09,77.708 190.914,186.117 236.56,110.312 	"/>
	<polygon style="fill:#CB753B;" points="287.369,145.634 375.401,112.487 372.14,215.733 	"/>
	<polygon style="fill:#C69451;" points="287.369,145.634 278.674,160.849 372.14,215.733 	"/>
	<polygon style="fill:#D99228;" points="375.401,112.487 372.14,215.733 422.134,189.65 	"/>
	<polygon style="fill:#DA1F27;" points="403.657,71.187 375.401,112.487 430.285,105.965 	"/>
	<polygon style="fill:#E04F26;" points="375.401,112.487 430.285,105.965 422.134,189.65 	"/>
	<polygon style="fill:#E41E26;" points="403.657,71.187 447.673,67.926 430.285,105.965 	"/>
	<path style="fill:#E31E26;" d="M403.657,71.187"/>
	<polygon style="fill:#C52126;" points="462.889,8.695 447.673,67.926 403.657,71.187 	"/>
	<polygon style="fill:#ED1C26;" points="462.889,8.695 446.587,70.102 523.749,41.3 	"/>
	<polygon style="fill:#E71E25;" points="443.868,67.926 523.749,41.3 524.838,111.399 	"/>
	<polygon style="fill:#ED1F24;" points="560.159,-5.434 523.752,41.3 538.965,85.316 	"/>
	<polygon style="fill:#EA2C24;" points="559.615,57.602 538.965,85.316 559.615,119.551 	"/>
	<polygon style="fill:#E71E25;" points="559.615,-5.976 537.88,87.489 559.615,57.602 	"/>
	<polygon style="fill:#E53D26;" points="523.749,41.3 523.749,110.856 538.965,85.316 	"/>
	<polygon style="fill:#E52225;" points="447.673,67.926 459.084,145.092 524.838,111.399 	"/>
	<polygon style="fill:#E62025;" points="447.673,65.21 430.285,105.965 459.084,145.092 	"/>
	<polygon style="fill:#E99823;" points="524.838,111.399 529.728,235.84 559.073,194.541 559.617,137.483 	"/>
	<polygon style="fill:#EA7C24;" points="524.838,111.399 459.084,145.092 529.728,235.84 	"/>
	<polygon style="fill:#E3A525;" points="459.084,145.092 477.561,240.729 529.728,235.84 	"/>
	<polygon style="fill:#E59425;" points="459.084,145.092 422.134,189.65 477.561,240.729 	"/>
	<polygon style="fill:#E45B25;" points="430.285,105.965 459.084,145.092 422.134,189.65 	"/>
	<polyline style="fill:#C59E2D;" points="420.503,190.736 416.699,243.99 477.561,240.187 421.048,188.563 	"/>
	<polygon style="fill:#D99228;" points="422.812,189.785 375.401,112.487 372.14,215.733 	"/>
	<polygon style="fill:#D6AB29;" points="372.14,215.733 422.812,189.785 416.699,243.99 	"/>
	<polyline style="fill:#CB753B;" points="287.096,144.139 375.401,111.67 372.14,215.733 287.369,145.634 	"/>
	<polygon style="fill:#A0A35A;" points="278.674,160.849 309.105,241.138 372.14,215.733 	"/>
	<polygon style="fill:#AE9E6A;" points="234.115,184.759 278.674,160.849 309.105,241.138 	"/>
	<polygon style="fill:#C69451;" points="278.674,160.849 287.096,144.139 372.14,215.733 	"/>
	<polygon style="fill:#EA2C24;" points="538.965,85.316 559.615,119.551 559.617,137.483 523.07,111.535 	"/>
	<polygon style="fill:#789A78;" points="234.115,184.759 216.727,265.727 309.105,241.138 	"/>
	<polygon style="fill:#1199D6;" points="61.312,187.747 116.466,163.022 142.279,227.688 	"/>
	<polygon style="fill:#2299D6;" points="61.312,187.747 71.637,278.225 140.106,224.971 	"/>
	<polygon style="fill:#2E8FB8;" points="140.649,223.884 106.958,334.739 217.814,265.727 	"/>
	<polygon style="fill:#208BCB;" points="140.921,224.427 71.637,278.225 107.5,336.098 	"/>
	<polygon style="fill:#3E5BA9;" points="-14.086,57.33 36.042,92.38 -15.309,80.561 	"/>
	<polygon style="fill:#427DC0;" points="-14.086,112.35 61.312,187.747 -14.902,202.827 	"/>
	<polygon style="fill:#3E89C9;" points="-14.902,202.827 61.312,187.747 71.637,278.225 	"/>
	<polygon style="fill:#416EB6;" points="-14.086,112.35 36.042,92.38 61.312,187.747 	"/>
	<polygon style="fill:#427CBF;" points="-14.902,202.827 71.637,278.225 -15.309,275.78 	"/>
	<polygon style="fill:#4275BB;" points="-15.309,275.78 -14.494,318.165 -7.565,335.69 71.637,278.225 	"/>
	<polygon style="fill:#3A6FB7;" points="-7.565,335.69 71.637,278.225 107.5,336.098 	"/>
	<polygon style="fill:#C62127;" points="463.431,8.695 490.059,59.775 510.436,33.692 	"/>
	<polygon style="fill:#B51F2B;" points="496.853,-4.211 523.752,41.435 529.458,-8.286 	"/>
</g>
<g id="Layer_3">
	<path style="fill:#231F20;" d="M-0.528-123.083v372.258h556.661v-372.258H-0.528z M538.01,4.38h11.761v44.441H538.01V4.38z
		 M494.936,4.38h16.818c9.571,0,17.779,3.281,17.779,14.357c0,6.358-2.872,10.531-7.183,12.857l9.647,17.227h-13.131l-7.653-14.906
		h-4.516v14.906h-11.763V4.38z M424.098,4.38l4.655,19.418c1.229,4.718,2.051,9.299,3.279,14.084h0.274
		c1.229-4.786,2.12-9.366,3.279-14.084l4.516-19.418h12.028l-13.124,44.441h-14.221L411.655,4.38H424.098z M392.099,32.071
		l-5.537-2.326c-4.787-1.914-8.956-5.948-8.956-12.375c0-7.589,6.836-13.813,16.55-13.813c5.057,0,10.66,1.914,14.768,5.95
		l-5.884,7.383c-3.006-2.12-5.604-3.214-8.884-3.214c-2.872,0-4.658,1.027-4.658,3.008c0,2.122,2.538,2.874,6.568,4.445l5.407,2.121
		c5.533,2.189,8.679,6.018,8.679,12.169c0,7.521-6.291,14.224-17.365,14.224c-5.606,0-12.034-2.052-16.821-6.358l6.699-8.069
		c3.146,2.528,7.107,4.307,10.396,4.307c3.553,0,5.056-1.162,5.056-3.145C398.117,34.258,395.863,33.574,392.099,32.071z
		 M220.619,41.711l18.188-27.485h-16.41V4.38h30.905v7.11l-18.187,27.485h18.324v9.846h-32.82V41.711z M50.233,4.38h28.717v9.846
		H61.994v6.973h14.494v9.845H61.994v7.93h17.638v9.846H50.233V4.38z M7.158,4.38h16.82c9.573,0,17.777,3.281,17.777,14.357
		c0,6.358-2.873,10.531-7.18,12.857l9.64,17.227H31.088L23.43,33.915h-4.513v14.906H7.158V4.38z M40.78,172.252H7.017V63.61H39.11
		c33.091,0,55.824,15.377,55.824,53.821C94.934,155.874,72.201,172.252,40.78,172.252z M104.25,31.728l-4.24,6.016v11.078H88.25
		V4.38h11.76v16.545h0.274L111.496,4.38h12.854l-13.265,18.049l14.503,24.128L138.436,4.38h14.222l13.536,44.441h-12.441
		l-2.189-9.436h-12.444l-2.189,9.436h-9.98l-1.361-2.264l-0.691,2.264h-10.805L104.25,31.728z M186.19,172.252h-71.87V63.61h70.199
		v24.07h-41.452v17.048H178.5v24.067h-35.434v19.387h43.123V172.252z M182.059,43.284l6.698-8.069
		c3.145,2.528,7.11,4.307,10.395,4.307c3.555,0,5.058-1.162,5.058-3.145c0-2.119-2.258-2.803-6.016-4.306l-5.541-2.326
		c-4.784-1.914-8.955-5.948-8.955-12.375c0-7.589,6.836-13.813,16.546-13.813c5.059,0,10.665,1.914,14.769,5.95l-5.881,7.383
		c-3.008-2.12-5.607-3.214-8.888-3.214c-2.87,0-4.65,1.027-4.65,3.008c0,2.122,2.533,2.874,6.565,4.445l5.401,2.121
		c5.537,2.189,8.685,6.018,8.685,12.169c0,7.521-6.292,14.224-17.367,14.224C193.271,49.643,186.843,47.59,182.059,43.284z
		 M241.678,174.259c-13.706,0-29.419-5.014-41.118-15.545l16.38-19.724c7.688,6.186,17.382,10.531,25.406,10.531
		c8.692,0,12.366-2.842,12.366-7.688c0-5.183-5.512-6.854-14.705-10.529l-13.539-5.684c-11.699-4.679-21.895-14.543-21.895-30.253
		c0-18.552,16.712-33.762,40.447-33.762c12.366,0,26.072,4.679,36.1,14.543L266.75,94.201c-7.354-5.185-13.708-7.856-21.728-7.856
		c-7.021,0-11.368,2.507-11.368,7.354c0,5.181,6.185,7.021,16.046,10.861l13.206,5.183c13.539,5.349,21.227,14.71,21.227,29.751
		C284.132,157.879,268.754,174.259,241.678,174.259z M289.814,48.821h-29.401V4.38h28.717v9.846h-16.956v6.973h14.493v9.845h-14.493
		v7.93h17.641V48.821z M330.259,172.252H301.51V63.61h28.749V172.252z M315.659,34.736h-5.47v14.085h-11.761V4.38h17.23
		c9.572,0,17.778,3.555,17.778,14.767C333.437,30.02,324.958,34.736,315.659,34.736z M340.683,4.38H369.4v9.846h-16.955v6.973
		h14.494v9.845h-14.494v7.93h17.64v9.846h-29.401V4.38z M441.242,160.889c-8.024,6.685-22.066,13.37-37.438,13.37
		c-29.754,0-54.157-18.385-54.157-55.488c0-36.439,25.071-57.164,54.826-57.164c15.373,0,27.07,6.686,34.763,14.374l-15.716,17.718
		c-5.343-4.682-10.023-7.354-18.716-7.354c-14.71,0-25.739,11.699-25.739,31.42c0,20.394,9.02,31.757,28.414,31.757
		c3.006,0,6.349-0.669,8.354-2.004v-15.045h-16.047v-23.397h41.456V160.889z M449.399,48.821L462.937,4.38h14.22l13.539,44.441
		h-12.443l-2.184-9.436h-12.45l-2.184,9.436H449.399z M550.542,172.252h-29.414l-24.065-48.635l-10.36-24.237h-0.669
		c1.331,12.37,3.675,28.08,3.675,41.449v31.423h-27.414V63.61h29.42l24.064,48.472l10.368,24.404h0.661
		c-1.331-11.701-3.674-28.08-3.674-41.453V63.61h27.408V172.252z"/>
</g>
</svg>
