<?xml version="1.0" encoding="utf-8"?>
<!-- Generator: Adobe Illustrator 16.0.0, SVG Export Plug-In . SVG Version: 6.00 Build 0)  -->
<!DOCTYPE svg PUBLIC "-//W3C//DTD SVG 1.1//EN" "http://www.w3.org/Graphics/SVG/1.1/DTD/svg11.dtd" [
	<!ENTITY ns_extend "http://ns.adobe.com/Extensibility/1.0/">
	<!ENTITY ns_ai "http://ns.adobe.com/AdobeIllustrator/10.0/">
	<!ENTITY ns_graphs "http://ns.adobe.com/Graphs/1.0/">
	<!ENTITY ns_vars "http://ns.adobe.com/Variables/1.0/">
	<!ENTITY ns_imrep "http://ns.adobe.com/ImageReplacement/1.0/">
	<!ENTITY ns_sfw "http://ns.adobe.com/SaveForWeb/1.0/">
	<!ENTITY ns_custom "http://ns.adobe.com/GenericCustomNamespace/1.0/">
	<!ENTITY ns_adobe_xpath "http://ns.adobe.com/XPath/1.0/">
]>
<svg version="1.1" xmlns:x="&ns_extend;" xmlns:i="&ns_ai;" xmlns:graph="&ns_graphs;"
	 xmlns="http://www.w3.org/2000/svg" xmlns:xlink="http://www.w3.org/1999/xlink" x="0px" y="0px" width="554.972px"
	 height="179.991px" viewBox="0 0 554.972 179.991" style="enable-background:new 0 0 554.972 179.991;" xml:space="preserve">
<metadata>
	<sfw  xmlns="&ns_sfw;">
		<slices></slices>
		<sliceSourceBounds  height="459.181" width="595.688" x="119.979" y="-482.598" bottomLeftOrigin="true"></sliceSourceBounds>
	</sfw>
</metadata>
<g id="Layer_4">
	<rect x="2.23" y="-29.262" style="fill:#3E5CAA;" width="164" height="237.334"/>
	<rect x="166.896" y="-29.928" style="fill:#621B57;" width="170.667" height="144.667"/>
	<rect x="161.563" y="76.072" style="fill:#B84F52;" width="218.667" height="141.333"/>
	<rect x="332.896" y="-31.928" style="fill:#C62127;" width="237.334" height="158"/>
	<rect x="276.23" y="81.405" style="fill:#EA7C24;" width="303.333" height="132"/>
</g>
<g id="triangles">
	<polyline style="fill:#48A3AE;" points="190.914,189.021 234.115,187.663 216.727,268.631 190.914,189.021 	"/>
	<polygon style="fill:#36A5BE;" points="137.931,225.702 190.914,189.021 216.727,268.631 	"/>
	<polyline style="fill:#319DC4;" points="116.74,166.471 140.106,227.875 191.458,188.752 116.74,166.471 	"/>
	<polygon style="fill:#22409A;" points="-13.68,-71.813 23,-4.159 52.345,-71.813 	"/>
	<polygon style="fill:#2E2E79;" points="118.369,-17.201 98.806,25.457 211.292,5.622 	"/>
	<polygon style="fill:#273B86;" points="19.468,-7.42 36.042,95.896 100.436,25.185 99.894,25.185 	"/>
	<polygon style="fill:#32499E;" points="-16.125,-18.016 23,-4.159 -13.68,26 	"/>
	<polygon style="fill:#2B317C;" points="52.345,-71.813 23,-4.159 118.369,-17.201 85.765,-70.998 	"/>
	<polygon style="fill:#2B317C;" points="-13.68,-71.813 -16.125,-18.016 23,-4.159 	"/>
	<polygon style="fill:#2D2B70;" points="118.369,-17.201 118.369,-70.184 167.275,-72.628 	"/>
	<polygon style="fill:#33499F;" points="22.73,-3.887 118.098,-16.929 99.351,24.914 	"/>
	<polygon style="fill:#2E2A6F;" points="186.023,-71.813 167.275,-72.628 118.369,-17.201 211.292,5.622 	"/>
	<polygon style="fill:#2E2A6F;" points="98.534,25.457 168.09,80.612 211.292,5.622 	"/>
	<polygon style="fill:#3E5CAA;" points="36.042,95.284 23,-4.159 -13.68,26 -13.68,61.865 	"/>
	<polygon style="fill:#2F5BAA;" points="99.621,24.642 168.363,80.612 35.771,95.827 	"/>
	<polygon style="fill:#2E2A70;" points="52.345,-71.813 118.641,-70.184 118.369,-17.201 	"/>
	<polygon style="fill:#3E6FB7;" points="-13.68,83.873 36.042,95.284 -7.158,122.183 -14.494,117.292 	"/>
	<polygon style="fill:#3E6FB7;" points="168.09,80.612 115.923,166.198 36.042,95.284 	"/>
	<polygon style="fill:#437DC0;" points="61.312,190.651 36.042,95.284 115.923,166.198 	"/>
	<polygon style="fill:#427EC1;" points="168.09,80.612 115.923,166.198 190.914,189.021 	"/>
	<polygon style="fill:#2C2159;" points="186.023,-71.813 211.292,5.622 269.979,-72.628 	"/>
	<polygon style="fill:#481E57;" points="259.383,50.453 211.292,5.622 168.09,80.612 	"/>
	<polygon style="fill:#4D2464;" points="270.251,-73.17 280.848,10.106 210.884,6.165 	"/>
	<polygon style="fill:#621B57;" points="211.292,5.622 259.383,50.453 280.576,9.697 	"/>
	<polygon style="fill:#691951;" points="168.09,80.612 236.56,113.216 259.383,50.453 	"/>
	<polygon style="fill:#7A2062;" points="269.979,-72.628 303.398,-47.36 280.576,9.697 	"/>
	<polygon style="fill:#72285F;" points="269.979,-72.628 341.708,-72.628 303.398,-47.36 	"/>
	<polygon style="fill:#AD1E54;" points="341.708,-72.628 363.716,-72.628 375.127,-27.797 303.398,-47.36 	"/>
	<polygon style="fill:#BC3C4D;" points="363.716,-72.628 422.405,-74.259 375.127,-27.797 	"/>
	<polygon style="fill:#CE2929;" points="422.405,-74.259 454.194,-74.259 464.791,-48.175 375.127,-27.797 	"/>
	<polygon style="fill:#CA583E;" points="454.194,-74.259 481.908,-73.444 464.791,-48.175 	"/>
	<polygon style="fill:#E33326;" points="481.908,-73.444 516.958,-71.813 560.159,-4.159 464.791,-48.175 	"/>
	<polygon style="fill:#DF4326;" points="511.251,-72.628 559.343,-72.628 560.159,-4.159 	"/>
	<polygon style="fill:#D32027;" points="464.791,-48.175 460.714,14.588 527.554,46.377 563.963,-5.245 	"/>
	<polygon style="fill:#DA1F27;" points="375.127,-27.797 464.791,-48.175 462.889,16.491 	"/>
	<polygon style="fill:#E61E25;" points="375.127,-27.797 403.657,74.091 460.714,14.588 	"/>
	<polygon style="fill:#D2202C;" points="375.127,-27.797 341.166,30.62 403.657,74.091 	"/>
	<polygon style="fill:#B01E4A;" points="303.398,-47.36 341.166,30.62 375.127,-27.797 	"/>
	<polygon style="fill:#9F1D52;" points="303.398,-47.36 279.761,11.6 341.166,30.62 	"/>
	<polygon style="fill:#891848;" points="280.576,9.697 259.383,50.453 341.166,30.62 	"/>
	<polygon style="fill:#AE1E3A;" points="259.383,50.453 308.561,101.263 341.166,30.62 	"/>
	<polygon style="fill:#BE2032;" points="341.166,30.62 308.561,101.263 375.401,115.392 	"/>
	<polygon style="fill:#D51F29;" points="341.166,30.62 403.657,74.091 375.401,115.392 	"/>
	<polygon style="fill:#A11C47;" points="259.383,50.453 236.56,113.216 308.561,101.263 	"/>
	<polygon style="fill:#B12C4A;" points="236.56,113.216 308.561,101.263 287.369,148.538 	"/>
	<polygon style="fill:#C94F47;" points="308.561,101.263 287.369,148.538 375.401,115.392 	"/>
	<polygon style="fill:#B84F52;" points="236.56,113.216 278.674,163.753 287.369,148.538 	"/>
	<polygon style="fill:#806B69;" points="236.56,113.216 234.115,187.663 278.674,163.753 	"/>
	<polygon style="fill:#857D80;" points="236.56,113.216 190.914,189.021 234.115,187.663 	"/>
	<polygon style="fill:#3A517D;" points="168.09,80.612 190.914,189.021 236.56,113.216 	"/>
	<polygon style="fill:#CB753B;" points="287.369,148.538 375.401,115.392 372.14,218.638 	"/>
	<polygon style="fill:#C69451;" points="287.369,148.538 278.674,163.753 372.14,218.638 	"/>
	<polygon style="fill:#D99228;" points="375.401,115.392 372.14,218.638 422.134,192.555 	"/>
	<polygon style="fill:#DA1F27;" points="403.657,74.091 375.401,115.392 430.285,108.869 	"/>
	<polygon style="fill:#E04F26;" points="375.401,115.392 430.285,108.869 422.134,192.555 	"/>
	<polygon style="fill:#E41E26;" points="403.657,74.091 447.673,70.831 430.285,108.869 	"/>
	<path style="fill:#E31E26;" d="M403.657,74.091"/>
	<polygon style="fill:#C52126;" points="462.889,11.6 447.673,70.831 403.657,74.091 	"/>
	<polygon style="fill:#ED1C26;" points="462.889,11.6 446.587,73.006 523.749,44.205 	"/>
	<polygon style="fill:#E71E25;" points="443.868,70.831 523.749,44.205 524.838,114.304 	"/>
	<polygon style="fill:#ED1F24;" points="560.159,-2.529 523.752,44.205 538.965,88.22 	"/>
	<polygon style="fill:#EA2C24;" points="559.615,60.506 538.965,88.22 559.615,122.455 	"/>
	<polygon style="fill:#E71E25;" points="559.615,-3.072 537.88,90.393 559.615,60.506 	"/>
	<polygon style="fill:#E53D26;" points="523.749,44.205 523.749,113.761 538.965,88.22 	"/>
	<polygon style="fill:#E52225;" points="447.673,70.831 459.084,147.996 524.838,114.304 	"/>
	<polygon style="fill:#E62025;" points="447.673,68.115 430.285,108.869 459.084,147.996 	"/>
	<polygon style="fill:#E99823;" points="524.838,114.304 529.728,238.744 559.073,197.445 559.617,140.388 	"/>
	<polygon style="fill:#EA7C24;" points="524.838,114.304 459.084,147.996 529.728,238.744 	"/>
	<polygon style="fill:#E3A525;" points="459.084,147.996 477.561,243.634 529.728,238.744 	"/>
	<polygon style="fill:#E59425;" points="459.084,147.996 422.134,192.555 477.561,243.634 	"/>
	<polygon style="fill:#E45B25;" points="430.285,108.869 459.084,147.996 422.134,192.555 	"/>
	<polyline style="fill:#C59E2D;" points="420.503,193.641 416.699,246.895 477.561,243.091 421.048,191.467 	"/>
	<polygon style="fill:#D99228;" points="422.812,192.689 375.401,115.392 372.14,218.638 	"/>
	<polygon style="fill:#D6AB29;" points="372.14,218.638 422.812,192.689 416.699,246.895 	"/>
	<polyline style="fill:#CB753B;" points="287.096,147.043 375.401,114.574 372.14,218.638 287.369,148.538 	"/>
	<polygon style="fill:#A0A35A;" points="278.674,163.753 309.105,244.042 372.14,218.638 	"/>
	<polygon style="fill:#AE9E6A;" points="234.115,187.663 278.674,163.753 309.105,244.042 	"/>
	<polygon style="fill:#C69451;" points="278.674,163.753 287.096,147.043 372.14,218.638 	"/>
	<polygon style="fill:#EA2C24;" points="538.965,88.22 559.615,122.455 559.617,140.388 523.07,114.439 	"/>
	<polygon style="fill:#789A78;" points="234.115,187.663 216.727,268.631 309.105,244.042 	"/>
	<polygon style="fill:#1199D6;" points="61.312,190.651 116.466,165.927 142.279,230.592 	"/>
	<polygon style="fill:#2299D6;" points="61.312,190.651 71.637,281.129 140.106,227.875 	"/>
	<polygon style="fill:#2E8FB8;" points="140.649,226.788 106.958,337.644 217.814,268.631 	"/>
	<polygon style="fill:#208BCB;" points="140.921,227.331 71.637,281.129 107.5,339.002 	"/>
	<polygon style="fill:#3E5BA9;" points="-14.086,60.234 36.042,95.284 -15.309,83.465 	"/>
	<polygon style="fill:#427DC0;" points="-14.086,115.254 61.312,190.651 -14.902,205.731 	"/>
	<polygon style="fill:#3E89C9;" points="-14.902,205.731 61.312,190.651 71.637,281.129 	"/>
	<polygon style="fill:#416EB6;" points="-14.086,115.254 36.042,95.284 61.312,190.651 	"/>
	<polygon style="fill:#427CBF;" points="-14.902,205.731 71.637,281.129 -15.309,278.685 	"/>
	<polygon style="fill:#4275BB;" points="-15.309,278.685 -14.494,321.069 -7.565,338.595 71.637,281.129 	"/>
	<polygon style="fill:#3A6FB7;" points="-7.565,338.595 71.637,281.129 107.5,339.002 	"/>
	<polygon style="fill:#C62127;" points="463.431,11.6 490.059,62.679 510.436,36.597 	"/>
	<polygon style="fill:#B51F2B;" points="496.853,-1.307 523.752,44.339 529.458,-5.382 	"/>
</g>
<g id="Layer_3">
	<path style="fill:#231F20;" d="M-0.528-120.179v372.258h556.661v-372.258H-0.528z M538.01,7.284h11.761v44.441H538.01V7.284z
		 M494.936,7.284h16.818c9.571,0,17.779,3.281,17.779,14.357c0,6.358-2.872,10.531-7.183,12.857l9.647,17.227h-13.131l-7.653-14.906
		h-4.516v14.906h-11.763V7.284z M424.098,7.284l4.655,19.418c1.229,4.718,2.051,9.299,3.279,14.084h0.274
		c1.229-4.786,2.12-9.366,3.279-14.084l4.516-19.418h12.028l-13.124,44.441h-14.221L411.655,7.284H424.098z M392.099,34.976
		l-5.537-2.326c-4.787-1.914-8.956-5.948-8.956-12.375c0-7.589,6.836-13.813,16.55-13.813c5.057,0,10.66,1.914,14.768,5.95
		l-5.884,7.383c-3.006-2.12-5.604-3.214-8.884-3.214c-2.872,0-4.658,1.027-4.658,3.008c0,2.122,2.538,2.874,6.568,4.445l5.407,2.121
		c5.533,2.189,8.679,6.018,8.679,12.169c0,7.521-6.291,14.224-17.365,14.224c-5.606,0-12.034-2.052-16.821-6.358l6.699-8.069
		c3.146,2.528,7.107,4.307,10.396,4.307c3.553,0,5.056-1.162,5.056-3.145C398.117,37.163,395.863,36.479,392.099,34.976z
		 M220.619,44.615l18.188-27.485h-16.41V7.284h30.905v7.11l-18.187,27.485h18.324v9.846h-32.82V44.615z M50.233,7.284h28.717v9.846
		H61.994v6.973h14.494v9.845H61.994v7.93h17.638v9.846H50.233V7.284z M7.158,7.284h16.82c9.573,0,17.777,3.281,17.777,14.357
		c0,6.358-2.873,10.531-7.18,12.857l9.64,17.227H31.088L23.43,36.819h-4.513v14.906H7.158V7.284z M40.78,175.156H7.017V66.515H39.11
		c33.091,0,55.824,15.377,55.824,53.821C94.934,158.778,72.201,175.156,40.78,175.156z M104.25,34.632l-4.24,6.016v11.078H88.25
		V7.284h11.76V23.83h0.274l11.212-16.545h12.854l-13.265,18.049l14.503,24.128l12.848-42.177h14.222l13.536,44.441h-12.441
		l-2.189-9.436h-12.444l-2.189,9.436h-9.98l-1.361-2.264l-0.691,2.264h-10.805L104.25,34.632z M186.19,175.156h-71.87V66.515h70.199
		v24.07h-41.452v17.048H178.5V131.7h-35.434v19.387h43.123V175.156z M182.059,46.188l6.698-8.069
		c3.145,2.528,7.11,4.307,10.395,4.307c3.555,0,5.058-1.162,5.058-3.145c0-2.119-2.258-2.803-6.016-4.306l-5.541-2.326
		c-4.784-1.914-8.955-5.948-8.955-12.375c0-7.589,6.836-13.813,16.546-13.813c5.059,0,10.665,1.914,14.769,5.95l-5.881,7.383
		c-3.008-2.12-5.607-3.214-8.888-3.214c-2.87,0-4.65,1.027-4.65,3.008c0,2.122,2.533,2.874,6.565,4.445l5.401,2.121
		c5.537,2.189,8.685,6.018,8.685,12.169c0,7.521-6.292,14.224-17.367,14.224C193.271,52.547,186.843,50.495,182.059,46.188z
		 M241.678,177.163c-13.706,0-29.419-5.014-41.118-15.545l16.38-19.724c7.688,6.186,17.382,10.531,25.406,10.531
		c8.692,0,12.366-2.842,12.366-7.688c0-5.183-5.512-6.854-14.705-10.529l-13.539-5.684c-11.699-4.679-21.895-14.543-21.895-30.253
		c0-18.552,16.712-33.762,40.447-33.762c12.366,0,26.072,4.679,36.1,14.543L266.75,97.105c-7.354-5.185-13.708-7.856-21.728-7.856
		c-7.021,0-11.368,2.507-11.368,7.354c0,5.181,6.185,7.021,16.046,10.861l13.206,5.183c13.539,5.349,21.227,14.71,21.227,29.751
		C284.132,160.783,268.754,177.163,241.678,177.163z M289.814,51.725h-29.401V7.284h28.717v9.846h-16.956v6.973h14.493v9.845
		h-14.493v7.93h17.641V51.725z M330.259,175.156H301.51V66.515h28.749V175.156z M315.659,37.64h-5.47v14.085h-11.761V7.284h17.23
		c9.572,0,17.778,3.555,17.778,14.767C333.437,32.924,324.958,37.64,315.659,37.64z M340.683,7.284H369.4v9.846h-16.955v6.973
		h14.494v9.845h-14.494v7.93h17.64v9.846h-29.401V7.284z M441.242,163.793c-8.024,6.685-22.066,13.37-37.438,13.37
		c-29.754,0-54.157-18.385-54.157-55.488c0-36.439,25.071-57.164,54.826-57.164c15.373,0,27.07,6.686,34.763,14.374l-15.716,17.718
		c-5.343-4.682-10.023-7.354-18.716-7.354c-14.71,0-25.739,11.699-25.739,31.42c0,20.394,9.02,31.757,28.414,31.757
		c3.006,0,6.349-0.669,8.354-2.004v-15.045h-16.047v-23.397h41.456V163.793z M449.399,51.725l13.538-44.441h14.22l13.539,44.441
		h-12.443l-2.184-9.436h-12.45l-2.184,9.436H449.399z M550.542,175.156h-29.414l-24.065-48.635l-10.36-24.237h-0.669
		c1.331,12.37,3.675,28.08,3.675,41.449v31.423h-27.414V66.515h29.42l24.064,48.472l10.368,24.404h0.661
		c-1.331-11.701-3.674-28.08-3.674-41.453V66.515h27.408V175.156z"/>
</g>
</svg>
